<svg width="30" height="31" viewBox="0 0 30 31" fill="none" xmlns="http://www.w3.org/2000/svg">
<path d="M26.5 15.885C26.5 13.5 26.4974 11.8117 26.3252 10.5325C26.1568 9.28213 25.8426 8.57278 25.3271 8.05688C24.8121 7.54151 24.103 7.22703 22.8525 7.05884C21.5732 6.88682 19.8849 6.88501 17.5 6.88501H12.5C10.115 6.88501 8.42668 6.8876 7.14746 7.05981C5.89712 7.22817 5.18777 7.54241 4.67188 8.05786C4.1565 8.57289 3.84202 9.28196 3.67383 10.5325C3.50181 11.8118 3.5 13.5001 3.5 15.885V18.385C3.5 20.77 3.50259 22.4583 3.67481 23.7375C3.84316 24.9879 4.1574 25.6972 4.67285 26.2131C5.18788 26.7285 5.89695 27.043 7.14746 27.2112C8.42682 27.3832 10.1151 27.385 12.5 27.385H17.5C19.885 27.385 21.5733 27.3824 22.8525 27.2102C24.1029 27.0419 24.8122 26.7276 25.3281 26.2122C25.8435 25.6971 26.158 24.9881 26.3262 23.7375C26.4982 22.4582 26.5 20.7699 26.5 18.385V15.885ZM28.5 18.385C28.5 20.7134 28.5017 22.5605 28.3076 24.0042C28.1096 25.4765 27.6915 26.6785 26.7422 27.6272C25.7931 28.5755 24.5915 28.9944 23.1191 29.1926C21.6756 29.387 19.8287 29.385 17.5 29.385H12.5C10.1716 29.385 8.32452 29.3868 6.88086 29.1926C5.40855 28.9946 4.20647 28.5765 3.25781 27.6272C2.30954 26.6781 1.8906 25.4765 1.69238 24.0042C1.49805 22.5606 1.5 20.7137 1.5 18.385V15.885C1.5 13.5566 1.49826 11.7095 1.69238 10.2659C1.8904 8.79356 2.30851 7.59148 3.25781 6.64282C4.20689 5.69455 5.40851 5.27561 6.88086 5.07739C8.32444 4.88306 10.1713 4.88501 12.5 4.88501H17.5C19.8284 4.88501 21.6755 4.88327 23.1191 5.07739C24.5914 5.27541 25.7935 5.69352 26.7422 6.64282C27.6905 7.5919 28.1094 8.79352 28.3076 10.2659C28.502 11.7094 28.5 13.5563 28.5 15.885V18.385Z" fill="#51A178"/>
<path d="M26.875 11.135C27.4273 11.135 27.875 11.5827 27.875 12.135C27.875 12.6873 27.4273 13.135 26.875 13.135H3.125C2.57272 13.135 2.125 12.6873 2.125 12.135C2.125 11.5827 2.57272 11.135 3.125 11.135H26.875ZM7.75 5.88501V4.01001C7.75 3.45772 8.19772 3.01001 8.75 3.01001C9.30229 3.01001 9.75 3.45772 9.75 4.01001V5.88501C9.75 6.43729 9.30229 6.88501 8.75 6.88501C8.19772 6.88501 7.75 6.43729 7.75 5.88501ZM20.25 5.88501V4.01001C20.25 3.45772 20.6977 3.01001 21.25 3.01001C21.8023 3.01001 22.25 3.45772 22.25 4.01001V5.88501C22.25 6.43729 21.8023 6.88501 21.25 6.88501C20.6977 6.88501 20.25 6.43729 20.25 5.88501Z" fill="#51A178"/>
<path d="M22.5 22.135C22.5 22.4665 22.3683 22.7845 22.1339 23.0189C21.8995 23.2533 21.5815 23.385 21.25 23.385C20.9185 23.385 20.6005 23.2533 20.3661 23.0189C20.1317 22.7845 20 22.4665 20 22.135C20 21.8035 20.1317 21.4855 20.3661 21.2511C20.6005 21.0167 20.9185 20.885 21.25 20.885C21.5815 20.885 21.8995 21.0167 22.1339 21.2511C22.3683 21.4855 22.5 21.8035 22.5 22.135ZM22.5 17.135C22.5 17.4665 22.3683 17.7845 22.1339 18.0189C21.8995 18.2533 21.5815 18.385 21.25 18.385C20.9185 18.385 20.6005 18.2533 20.3661 18.0189C20.1317 17.7845 20 17.4665 20 17.135C20 16.8035 20.1317 16.4855 20.3661 16.2511C20.6005 16.0167 20.9185 15.885 21.25 15.885C21.5815 15.885 21.8995 16.0167 22.1339 16.2511C22.3683 16.4855 22.5 16.8035 22.5 17.135ZM16.25 22.135C16.25 22.4665 16.1183 22.7845 15.8839 23.0189C15.6495 23.2533 15.3315 23.385 15 23.385C14.6685 23.385 14.3505 23.2533 14.1161 23.0189C13.8817 22.7845 13.75 22.4665 13.75 22.135C13.75 21.8035 13.8817 21.4855 14.1161 21.2511C14.3505 21.0167 14.6685 20.885 15 20.885C15.3315 20.885 15.6495 21.0167 15.8839 21.2511C16.1183 21.4855 16.25 21.8035 16.25 22.135ZM16.25 17.135C16.25 17.4665 16.1183 17.7845 15.8839 18.0189C15.6495 18.2533 15.3315 18.385 15 18.385C14.6685 18.385 14.3505 18.2533 14.1161 18.0189C13.8817 17.7845 13.75 17.4665 13.75 17.135C13.75 16.8035 13.8817 16.4855 14.1161 16.2511C14.3505 16.0167 14.6685 15.885 15 15.885C15.3315 15.885 15.6495 16.0167 15.8839 16.2511C16.1183 16.4855 16.25 16.8035 16.25 17.135ZM10 22.135C10 22.4665 9.8683 22.7845 9.63388 23.0189C9.39946 23.2533 9.08152 23.385 8.75 23.385C8.41848 23.385 8.10054 23.2533 7.86612 23.0189C7.6317 22.7845 7.5 22.4665 7.5 22.135C7.5 21.8035 7.6317 21.4855 7.86612 21.2511C8.10054 21.0167 8.41848 20.885 8.75 20.885C9.08152 20.885 9.39946 21.0167 9.63388 21.2511C9.8683 21.4855 10 21.8035 10 22.135ZM10 17.135C10 17.4665 9.8683 17.7845 9.63388 18.0189C9.39946 18.2533 9.08152 18.385 8.75 18.385C8.41848 18.385 8.10054 18.2533 7.86612 18.0189C7.6317 17.7845 7.5 17.4665 7.5 17.135C7.5 16.8035 7.6317 16.4855 7.86612 16.2511C8.10054 16.0167 8.41848 15.885 8.75 15.885C9.08152 15.885 9.39946 16.0167 9.63388 16.2511C9.8683 16.4855 10 16.8035 10 17.135Z" fill="#51A178"/>
</svg>
