<svg width="15" height="14" viewBox="0 0 15 14" fill="none" xmlns="http://www.w3.org/2000/svg">
<mask id="mask0_0_37990" style="mask-type:luminance" maskUnits="userSpaceOnUse" x="0" y="0" width="15" height="14">
<path d="M7.04315 -6.10352e-05C10.9321 -6.10352e-05 14.0845 3.13463 14.0845 7.00064C14.0845 10.8666 10.9321 13.9999 7.04315 13.9999C3.15354 13.9999 0 10.8666 0 7.00064C0 3.13463 3.15354 -6.10352e-05 7.04315 -6.10352e-05Z" fill="white"/>
</mask>
<g mask="url(#mask0_0_37990)">
<path d="M7.04274 14.7506C11.3488 14.7506 14.8396 11.2807 14.8396 7.00029C14.8396 2.71992 11.3488 -0.75 7.04274 -0.75C2.73664 -0.75 -0.75415 2.71992 -0.75415 7.00029C-0.75415 11.2807 2.73664 14.7506 7.04274 14.7506Z" fill="#281C1B"/>
<path fill-rule="evenodd" clip-rule="evenodd" d="M7.08827 -0.732971C11.3608 -0.732971 14.824 2.70957 14.824 6.95652C14.824 11.2035 11.3608 14.646 7.08827 14.646C2.81578 14.646 -0.647461 11.2035 -0.647461 6.95652C-0.647461 2.70957 2.81578 -0.732971 7.08827 -0.732971Z" fill="#2C1E1B"/>
<path fill-rule="evenodd" clip-rule="evenodd" d="M7.13344 -0.715637C11.3727 -0.715637 14.808 2.69914 14.808 6.91271C14.808 11.1266 11.3727 14.5414 7.13344 14.5414C2.89454 14.5414 -0.540771 11.1266 -0.540771 6.91271C-0.540771 2.69914 2.89454 -0.715637 7.13344 -0.715637Z" fill="#2F201B"/>
<path fill-rule="evenodd" clip-rule="evenodd" d="M7.17921 -0.699707C11.3849 -0.699707 14.7933 2.68977 14.7933 6.86925C14.7933 11.0498 11.3849 14.4379 7.17921 14.4379C2.97496 14.4379 -0.433838 11.0498 -0.433838 6.86925C-0.433838 2.68977 2.97496 -0.699707 7.17921 -0.699707Z" fill="#33211B"/>
<path fill-rule="evenodd" clip-rule="evenodd" d="M7.22434 -0.682434C11.3954 -0.682434 14.7773 2.67893 14.7773 6.82502C14.7773 10.9711 11.3954 14.3328 7.22434 14.3328C3.05367 14.3328 -0.328613 10.9711 -0.328613 6.82502C-0.328613 2.67893 3.05367 -0.682434 7.22434 -0.682434Z" fill="#36231B"/>
<path fill-rule="evenodd" clip-rule="evenodd" d="M7.27 -0.665039C11.4074 -0.665039 14.7614 2.66856 14.7614 6.78162C14.7614 10.8943 11.4074 14.2279 7.27 14.2279C3.13221 14.2279 -0.221436 10.8943 -0.221436 6.78162C-0.221436 2.66856 3.13221 -0.665039 7.27 -0.665039Z" fill="#3A251B"/>
<path fill-rule="evenodd" clip-rule="evenodd" d="M7.31542 -0.648071C11.4196 -0.648071 14.7467 2.65917 14.7467 6.73744C14.7467 10.8171 11.4196 14.1244 7.31542 14.1244C3.21263 14.1244 -0.114502 10.8171 -0.114502 6.73744C-0.114502 2.65917 3.21263 -0.648071 7.31542 -0.648071Z" fill="#3D271B"/>
<path fill-rule="evenodd" clip-rule="evenodd" d="M7.36201 -0.63092C11.4316 -0.63092 14.7304 2.64856 14.7304 6.69485C14.7304 10.7401 11.4316 14.0192 7.36201 14.0192C3.29139 14.0192 -0.0078125 10.7401 -0.0078125 6.69485C-0.0078125 2.64856 3.29139 -0.63092 7.36201 -0.63092Z" fill="#41291B"/>
<path fill-rule="evenodd" clip-rule="evenodd" d="M7.40694 -0.613586C11.4433 -0.613586 14.7142 2.63778 14.7142 6.65103C14.7142 10.6632 11.4433 13.9146 7.40694 13.9146C3.36955 13.9146 0.0986328 10.6632 0.0986328 6.65103C0.0986328 2.63778 3.36955 -0.613586 7.40694 -0.613586Z" fill="#452A1B"/>
<path fill-rule="evenodd" clip-rule="evenodd" d="M7.45271 -0.596558C11.4554 -0.596558 14.6999 2.62845 14.6999 6.60727C14.6999 10.5861 11.4554 13.8107 7.45271 13.8107C3.44997 13.8107 0.205566 10.5861 0.205566 6.60727C0.205566 2.62845 3.44997 -0.596558 7.45271 -0.596558Z" fill="#482C1B"/>
<path fill-rule="evenodd" clip-rule="evenodd" d="M7.49807 -0.579224C11.4662 -0.579224 14.6837 2.61803 14.6837 6.56345C14.6837 10.5092 11.4662 13.7065 7.49807 13.7065C3.52892 13.7065 0.311035 10.5092 0.311035 6.56345C0.311035 2.61803 3.52892 -0.579224 7.49807 -0.579224Z" fill="#4C2E1B"/>
<path fill-rule="evenodd" clip-rule="evenodd" d="M7.54325 -0.562744C11.4781 -0.562744 14.6691 2.60745 14.6691 6.51984C14.6691 10.4312 11.4781 13.6017 7.54325 13.6017C3.60874 13.6017 0.417725 10.4312 0.417725 6.51984C0.417725 2.60745 3.60874 -0.562744 7.54325 -0.562744Z" fill="#4F301C"/>
<path fill-rule="evenodd" clip-rule="evenodd" d="M7.58891 -0.54541C11.4902 -0.54541 14.6533 2.59842 14.6533 6.47638C14.6533 10.3543 11.4902 13.4985 7.58891 13.4985C3.68764 13.4985 0.524902 10.3543 0.524902 6.47638C0.524902 2.59842 3.68764 -0.54541 7.58891 -0.54541Z" fill="#53321C"/>
<path fill-rule="evenodd" clip-rule="evenodd" d="M7.63409 -0.528137C11.5021 -0.528137 14.6369 2.58793 14.6369 6.4325C14.6369 10.2774 11.5021 13.3935 7.63409 13.3935C3.7664 13.3935 0.631592 10.2774 0.631592 6.4325C0.631592 2.58793 3.7664 -0.528137 7.63409 -0.528137Z" fill="#56341C"/>
<path fill-rule="evenodd" clip-rule="evenodd" d="M7.67961 -0.510986C11.5141 -0.510986 14.622 2.57732 14.622 6.38886C14.622 10.2004 11.5141 13.2901 7.67961 13.2901C3.84657 13.2901 0.738281 10.2004 0.738281 6.38886C0.738281 2.57732 3.84657 -0.510986 7.67961 -0.510986Z" fill="#5A351C"/>
<path fill-rule="evenodd" clip-rule="evenodd" d="M7.72498 -0.495422C11.5248 -0.495422 14.6062 2.56758 14.6062 6.34468C14.6062 10.1232 11.5248 13.1848 7.72498 13.1848C3.92553 13.1848 0.84375 10.1232 0.84375 6.34468C0.84375 2.56758 3.92553 -0.495422 7.72498 -0.495422Z" fill="#5E371C"/>
<path fill-rule="evenodd" clip-rule="evenodd" d="M7.7704 -0.478271C11.537 -0.478271 14.5905 2.55697 14.5905 6.30068C14.5905 10.0447 11.537 13.08 7.7704 13.08C4.00418 13.08 0.950684 10.0447 0.950684 6.30068C0.950684 2.55697 4.00418 -0.478271 7.7704 -0.478271Z" fill="#61391C"/>
<path fill-rule="evenodd" clip-rule="evenodd" d="M7.81593 -0.46106C11.5489 -0.46106 14.5759 2.54783 14.5759 6.2585C14.5759 9.96778 11.5489 12.9763 7.81593 12.9763C4.08294 12.9763 1.05737 9.96778 1.05737 6.2585C1.05737 2.54783 4.08294 -0.46106 7.81593 -0.46106Z" fill="#653B1C"/>
<path fill-rule="evenodd" clip-rule="evenodd" d="M7.86124 -0.444092C11.561 -0.444092 14.5597 2.53668 14.5597 6.21433C14.5597 9.89056 11.561 12.8713 7.86124 12.8713C4.16325 12.8713 1.16455 9.89056 1.16455 6.21433C1.16455 2.53668 4.16325 -0.444092 7.86124 -0.444092Z" fill="#683D1C"/>
<path fill-rule="evenodd" clip-rule="evenodd" d="M7.90818 -0.426636C11.5729 -0.426636 14.5437 2.52637 14.5437 6.17063C14.5437 9.81384 11.5729 12.7668 7.90818 12.7668C4.24201 12.7668 1.27124 9.81384 1.27124 6.17063C1.27124 2.52637 4.24201 -0.426636 7.90818 -0.426636Z" fill="#6C3E1C"/>
<path fill-rule="evenodd" clip-rule="evenodd" d="M7.95194 -0.409424C11.5849 -0.409424 14.5288 2.51723 14.5288 6.1267C14.5288 9.73687 11.5849 12.6632 7.95194 12.6632C4.32041 12.6632 1.37793 9.73687 1.37793 6.1267C1.37793 2.51723 4.32041 -0.409424 7.95194 -0.409424Z" fill="#6F401C"/>
<path d="M7.99801 12.5593C11.5959 12.5593 14.5126 9.66 14.5126 6.08359C14.5126 2.50717 11.5959 -0.39209 7.99801 -0.39209C4.40009 -0.39209 1.4834 2.50717 1.4834 6.08359C1.4834 9.66 4.40009 12.5593 7.99801 12.5593Z" fill="#73421C"/>
<path fill-rule="evenodd" clip-rule="evenodd" d="M8.0323 -0.341248C11.5705 -0.341248 14.4384 2.5109 14.4384 6.02795C14.4384 9.54464 11.5691 12.3701 8.03089 12.3701C4.49269 12.3701 1.62622 9.54464 1.62622 6.02795C1.62622 2.5109 4.49411 -0.341248 8.0323 -0.341248Z" fill="#764621"/>
<path fill-rule="evenodd" clip-rule="evenodd" d="M8.06707 -0.28833C11.5452 -0.28833 14.365 2.51357 14.365 5.97192C14.365 9.42888 11.5423 12.1802 8.06319 12.1802C4.58509 12.1802 1.76953 9.42888 1.76953 5.97192C1.76953 2.51357 4.58898 -0.28833 8.06707 -0.28833Z" fill="#7A4B25"/>
<path fill-rule="evenodd" clip-rule="evenodd" d="M8.10076 -0.237122C11.5198 -0.237122 14.2901 2.51804 14.2901 5.91525C14.2901 9.31281 11.5145 11.9924 8.09652 11.9924C4.67853 11.9924 1.91211 9.31281 1.91211 5.91525C1.91211 2.51804 4.68277 -0.237122 8.10076 -0.237122Z" fill="#7D4F2A"/>
<path fill-rule="evenodd" clip-rule="evenodd" d="M8.13524 -0.18573C11.4928 -0.18573 14.2154 2.52023 14.2154 5.85945C14.2154 9.19727 11.4875 11.8038 8.12853 11.8038C4.77064 11.8038 2.05371 9.19727 2.05371 5.85945C2.05371 2.52023 4.77594 -0.18573 8.13524 -0.18573Z" fill="#81542F"/>
<path fill-rule="evenodd" clip-rule="evenodd" d="M8.16847 -0.134033C11.4677 -0.134033 14.1418 2.52448 14.1418 5.80362C14.1418 9.08169 11.461 11.614 8.16175 11.614C4.86255 11.614 2.19653 9.08169 2.19653 5.80362C2.19653 2.52448 4.87068 -0.134033 8.16847 -0.134033Z" fill="#845833"/>
<path fill-rule="evenodd" clip-rule="evenodd" d="M8.20287 -0.0811768C11.442 -0.0811768 14.067 2.52814 14.067 5.74788C14.067 8.96622 11.4328 11.4251 8.19367 11.4251C4.95599 11.4251 2.33911 8.96622 2.33911 5.74788C2.33911 2.52814 4.96377 -0.0811768 8.20287 -0.0811768Z" fill="#875D38"/>
<path fill-rule="evenodd" clip-rule="evenodd" d="M8.2381 -0.0302124C11.4167 -0.0302124 13.9923 2.53131 13.9923 5.69096C13.9923 8.85096 11.4061 11.2357 8.22714 11.2357C5.04814 11.2357 2.48218 8.85096 2.48218 5.69096C2.48218 2.53131 5.05875 -0.0302124 8.2381 -0.0302124Z" fill="#8B613C"/>
<path fill-rule="evenodd" clip-rule="evenodd" d="M8.27133 0.0214233C11.3902 0.0214233 13.9191 2.53515 13.9191 5.63541C13.9191 8.73567 11.3782 11.0473 8.25931 11.0473C5.14041 11.0473 2.625 8.73567 2.625 5.63541C2.625 2.53515 5.15243 0.0214233 8.27133 0.0214233Z" fill="#8E6641"/>
<path fill-rule="evenodd" clip-rule="evenodd" d="M8.30597 0.0731201C11.3648 0.0731201 13.8441 2.53765 13.8441 5.57817C13.8441 8.62009 11.3513 10.859 8.29254 10.859C5.23374 10.859 2.76782 8.62009 2.76782 5.57817C2.76782 2.53765 5.24717 0.0731201 8.30597 0.0731201Z" fill="#926A46"/>
<path fill-rule="evenodd" clip-rule="evenodd" d="M8.3395 0.124634C11.3393 0.124634 13.7691 2.54137 13.7691 5.52214C13.7691 8.50432 11.3248 10.6687 8.32465 10.6687C5.32595 10.6687 2.90918 8.50432 2.90918 5.52214C2.90918 2.54137 5.3408 0.124634 8.3395 0.124634Z" fill="#956E4A"/>
<path fill-rule="evenodd" clip-rule="evenodd" d="M8.37427 0.176331C11.3125 0.176331 13.6961 2.54528 13.6961 5.46631C13.6961 8.38734 11.2966 10.4804 8.35801 10.4804C5.41836 10.4804 3.05249 8.38734 3.05249 5.46631C3.05249 2.54528 5.43568 0.176331 8.37427 0.176331Z" fill="#99734F"/>
<path fill-rule="evenodd" clip-rule="evenodd" d="M8.40726 0.227966C11.2872 0.227966 13.6209 2.54806 13.6209 5.41076C13.6209 8.27205 11.2698 10.2903 8.38993 10.2903C5.51144 10.2903 3.19507 8.27205 3.19507 5.41076C3.19507 2.54806 5.52876 0.227966 8.40726 0.227966Z" fill="#9C7754"/>
<path fill-rule="evenodd" clip-rule="evenodd" d="M8.44214 0.280029C11.2619 0.280029 13.5465 2.55198 13.5465 5.35353C13.5465 8.15648 11.2421 10.102 8.42376 10.102C5.6036 10.102 3.33813 8.15648 3.33813 5.35353C3.33813 2.55198 5.62375 0.280029 8.44214 0.280029Z" fill="#9F7C58"/>
<path fill-rule="evenodd" clip-rule="evenodd" d="M8.47653 0.331787C11.2366 0.331787 13.4727 2.55454 13.4727 5.2981C13.4727 8.04096 11.215 9.91369 8.45532 9.91369C5.69562 9.91369 3.48071 8.04096 3.48071 5.2981C3.48071 2.55454 5.71683 0.331787 8.47653 0.331787Z" fill="#A3805D"/>
<path fill-rule="evenodd" clip-rule="evenodd" d="M8.51031 0.383362C11.2099 0.383362 13.3983 2.55867 13.3983 5.24214C13.3983 7.92561 11.1873 9.72384 8.48874 9.72384C5.78914 9.72384 3.62231 7.92561 3.62231 5.24214C3.62231 2.55867 5.8107 0.383362 8.51031 0.383362Z" fill="#A68562"/>
<path fill-rule="evenodd" clip-rule="evenodd" d="M8.54495 0.434875C11.1845 0.434875 13.3233 2.56099 13.3233 5.18506C13.3233 7.80844 11.1604 9.53533 8.52091 9.53533C5.88141 9.53533 3.76514 7.80844 3.76514 5.18506C3.76514 2.56099 5.90545 0.434875 8.54495 0.434875Z" fill="#AA8966"/>
<path fill-rule="evenodd" clip-rule="evenodd" d="M8.57842 0.487C11.1582 0.487 13.2504 2.56532 13.2504 5.1293C13.2504 7.69329 11.1341 9.34568 8.55332 9.34568C5.97392 9.34568 3.9082 7.69329 3.9082 5.1293C3.9082 2.56532 5.99902 0.487 8.57842 0.487Z" fill="#AD8D6B"/>
<path fill-rule="evenodd" clip-rule="evenodd" d="M8.61281 0.538879C11.1325 0.538879 13.1752 2.5694 13.1752 5.07365C13.1752 7.57789 11.106 9.15754 8.5863 9.15754C6.067 9.15754 4.05078 7.57789 4.05078 5.07365C4.05078 2.5694 6.09351 0.538879 8.61281 0.538879Z" fill="#B0926F"/>
<path fill-rule="evenodd" clip-rule="evenodd" d="M8.64781 0.590332C11.107 0.590332 13.1017 2.57166 13.1017 5.01791C13.1017 7.46241 11.0791 8.96861 8.61846 8.96861C6.15891 8.96861 4.1936 7.46241 4.1936 5.01791C4.1936 2.57166 6.18719 0.590332 8.64781 0.590332Z" fill="#B49674"/>
<path fill-rule="evenodd" clip-rule="evenodd" d="M8.68087 0.64209C11.0814 0.64209 13.0269 2.57597 13.0269 4.96214C13.0269 7.34689 11.0506 8.77894 8.65153 8.77894C6.25102 8.77894 4.33521 7.34689 4.33521 4.96214C4.33521 2.57597 6.28178 0.64209 8.68087 0.64209Z" fill="#B79B79"/>
<path fill-rule="evenodd" clip-rule="evenodd" d="M8.71576 0.694397C11.0565 0.694397 12.9522 2.58013 12.9522 4.9055C12.9522 7.23192 11.0244 8.59088 8.68535 8.59088C6.34459 8.59088 4.47827 7.23192 4.47827 4.9055C4.47827 2.58013 6.37535 0.694397 8.71576 0.694397Z" fill="#BB9F7D"/>
<path fill-rule="evenodd" clip-rule="evenodd" d="M8.74934 0.745972C11.0296 0.745972 12.8776 2.58286 12.8776 4.84954C12.8776 7.11622 10.9978 8.40102 8.71717 8.40102C6.43686 8.40102 4.62109 7.11622 4.62109 4.84954C4.62109 2.58286 6.46867 0.745972 8.74934 0.745972Z" fill="#BEA482"/>
<path fill-rule="evenodd" clip-rule="evenodd" d="M8.78373 0.797729C11.0043 0.797729 12.8038 2.58683 12.8038 4.79376C12.8038 7.00105 10.9693 8.21276 8.74909 8.21276C6.52888 8.21276 4.76367 7.00105 4.76367 4.79376C4.76367 2.58683 6.56353 0.797729 8.78373 0.797729Z" fill="#C2A887"/>
<path fill-rule="evenodd" clip-rule="evenodd" d="M8.81862 0.849243C10.9787 0.849243 12.7294 2.59019 12.7294 4.73774C12.7294 6.88494 10.943 8.02355 8.78256 8.02355C6.62245 8.02355 4.90674 6.88494 4.90674 4.73774C4.90674 2.59019 6.6571 0.849243 8.81862 0.849243Z" fill="#C5AD8B"/>
<path fill-rule="evenodd" clip-rule="evenodd" d="M8.8519 0.901428C10.9519 0.901428 12.6556 2.59353 12.6556 4.68239C12.6556 6.76985 10.9144 7.83431 8.81443 7.83431C6.71442 7.83431 5.04785 6.76985 5.04785 4.68239C5.04785 2.59353 6.75154 0.901428 8.8519 0.901428Z" fill="#C8B190"/>
<path fill-rule="evenodd" clip-rule="evenodd" d="M8.88679 0.952942C10.9267 0.952942 12.5809 2.59725 12.5809 4.62532C12.5809 6.65303 10.8882 7.6458 8.84825 7.6458C6.80658 7.6458 5.19092 6.65303 5.19092 4.62532C5.19092 2.59725 6.84547 0.952942 8.88679 0.952942Z" fill="#CCB594"/>
<path fill-rule="evenodd" clip-rule="evenodd" d="M8.9199 1.00464C10.9015 1.00464 12.5062 2.6001 12.5062 4.56948C12.5062 6.5378 10.8612 7.45607 8.87995 7.45607C6.8998 7.45607 5.33398 6.5378 5.33398 4.56948C5.33398 2.6001 6.9401 1.00464 8.9199 1.00464Z" fill="#CFBA99"/>
<path fill-rule="evenodd" clip-rule="evenodd" d="M8.95514 1.05627C10.8748 1.05627 12.4329 2.60359 12.4329 4.51322C12.4329 6.4218 10.8335 7.26733 8.91342 7.26733C6.99231 7.26733 5.47705 6.4218 5.47705 4.51322C5.47705 2.60359 7.03367 1.05627 8.95514 1.05627Z" fill="#D3BE9E"/>
<path fill-rule="evenodd" clip-rule="evenodd" d="M8.98812 1.10785C10.8491 1.10785 12.358 2.60737 12.358 4.45621C12.358 6.3061 10.8067 7.07853 8.94534 7.07853C7.08398 7.07853 5.61963 6.3061 5.61963 4.45621C5.61963 2.60737 7.12817 1.10785 8.98812 1.10785Z" fill="#D6C3A2"/>
<path fill-rule="evenodd" clip-rule="evenodd" d="M9.02301 1.15948C10.8243 1.15948 12.2833 2.61016 12.2833 4.40031C12.2833 6.19081 10.7787 6.88909 8.97917 6.88909C7.1779 6.88909 5.7627 6.19081 5.7627 4.40031C5.7627 2.61016 7.22174 1.15948 9.02301 1.15948Z" fill="#D9C7A7"/>
<path fill-rule="evenodd" clip-rule="evenodd" d="M9.0576 1.21112C10.7988 1.21112 12.2101 2.61435 12.2101 4.34476C12.2101 6.07517 10.7517 6.70035 9.01093 6.70035C7.27012 6.70035 5.90405 6.07517 5.90405 4.34476C5.90405 2.61435 7.31537 1.21112 9.0576 1.21112Z" fill="#DDCCAC"/>
<path fill-rule="evenodd" clip-rule="evenodd" d="M9.09118 1.26355C10.7733 1.26355 12.1351 2.61723 12.1351 4.2879C12.1351 5.96032 10.7252 6.511 9.04416 6.511C7.36203 6.511 6.04688 5.96032 6.04688 4.2879C6.04688 2.61723 7.41011 1.26355 9.09118 1.26355Z" fill="#E0D0B0"/>
<path fill-rule="evenodd" clip-rule="evenodd" d="M9.12582 1.31488C10.7464 1.31488 12.0602 2.62077 12.0602 4.23204C12.0602 5.84437 10.6973 6.32231 9.07632 6.32231C7.45571 6.32231 6.1897 5.84437 6.1897 4.23204C6.1897 2.62077 7.50344 1.31488 9.12582 1.31488Z" fill="#E4D4B5"/>
<path fill-rule="evenodd" clip-rule="evenodd" d="M9.1588 1.36646C10.7211 1.36646 11.9867 2.6249 11.9867 4.17608C11.9867 5.72902 10.6702 6.13386 9.1093 6.13386C7.54738 6.13386 6.33228 5.72902 6.33228 4.17608C6.33228 2.6249 7.59829 1.36646 9.1588 1.36646Z" fill="#E7D9BA"/>
<path fill-rule="evenodd" clip-rule="evenodd" d="M9.19404 1.41766C10.6959 1.41766 11.912 2.62797 11.912 4.12116C11.912 5.61295 10.6425 5.9447 9.14171 5.9447C7.63954 5.9447 6.47534 5.61295 6.47534 4.12116C6.47534 2.62797 7.69186 1.41766 9.19404 1.41766Z" fill="#EBDDBE"/>
<path fill-rule="evenodd" clip-rule="evenodd" d="M9.22715 1.47058C10.6689 1.47058 11.8373 2.63203 11.8373 4.06373C11.8373 5.49719 10.6155 5.75584 9.17377 5.75584C7.73311 5.75584 6.61841 5.49719 6.61841 4.06373C6.61841 2.63203 7.78649 1.47058 9.22715 1.47058Z" fill="#EEE2C3"/>
<path fill-rule="evenodd" clip-rule="evenodd" d="M9.26199 1.52094C10.644 1.52094 11.764 2.6346 11.764 4.00831C11.764 5.38167 10.5892 5.56617 9.20719 5.56617C7.82521 5.56617 6.76001 5.38167 6.76001 4.00831C6.76001 2.6346 7.88037 1.52094 9.26199 1.52094Z" fill="#F1E6C7"/>
<path fill-rule="evenodd" clip-rule="evenodd" d="M9.29663 1.57422C10.6185 1.57422 11.6894 2.63833 11.6894 3.9523C11.6894 5.26627 10.5609 5.37767 9.23935 5.37767C7.91748 5.37767 6.90283 5.26627 6.90283 3.9523C6.90283 2.63833 7.97475 1.57422 9.29663 1.57422Z" fill="#F5EBCC"/>
<path fill-rule="evenodd" clip-rule="evenodd" d="M9.33021 1.62408C10.593 1.62408 11.6144 2.64075 11.6144 3.89639C11.6144 5.15027 10.5344 5.18752 9.27258 5.18752C8.01116 5.18752 7.04565 5.15027 7.04565 3.89639C7.04565 2.64075 8.06843 1.62408 9.33021 1.62408Z" fill="#F8EFD1"/>
<path fill-rule="evenodd" clip-rule="evenodd" d="M9.36485 1.67578C10.5665 1.67578 11.5412 2.64466 11.5412 3.83914C11.5412 5.03504 10.5075 4.99919 9.30474 4.99919C8.10307 4.99919 7.18848 5.03504 7.18848 3.83914C7.18848 2.64466 8.16176 1.67578 9.36485 1.67578Z" fill="#FCF4D5"/>
<path fill-rule="evenodd" clip-rule="evenodd" d="M9.39816 1.72797C10.5404 1.72797 11.466 2.64834 11.466 3.78344C11.466 4.91889 10.4793 4.80995 9.33735 4.80995C8.19507 4.80995 7.33032 4.91889 7.33032 3.78344C7.33032 2.64834 8.25623 1.72797 9.39816 1.72797Z" fill="#FFF8DA"/>
<path fill-rule="evenodd" clip-rule="evenodd" d="M3.18072 12.3031C4.45062 13.2688 5.9178 13.5623 6.05214 13.3314C6.18613 13.1005 5.61623 13.2962 3.62016 11.7784C1.62445 10.2606 1.36001 9.63862 1.24122 9.7929C1.12278 9.94682 1.91082 11.3374 3.18072 12.3031Z" fill="#94603B"/>
</g>
</svg>
