<svg width="25" height="27" viewBox="0 0 25 27" fill="none" xmlns="http://www.w3.org/2000/svg">
<path fill-rule="evenodd" clip-rule="evenodd" d="M7.30781 3.95904C13.4055 1.36717 20.4491 4.20959 23.041 10.3073C25.6328 16.4051 22.7904 23.4496 16.6927 26.0415C10.595 28.6324 3.55047 25.79 0.958619 19.6923C-1.63229 13.5945 1.20917 6.5509 7.30781 3.95904Z" fill="#283A2B"/>
<mask id="mask0_0_38354" style="mask-type:luminance" maskUnits="userSpaceOnUse" x="1" y="0" width="25" height="25">
<path d="M8.37049 1.92286C14.4491 -0.64373 21.4695 2.17199 24.0515 8.21339C26.6336 14.252 23.8009 21.2304 17.7232 23.797C11.6483 26.3664 4.62697 23.5516 2.04495 17.5093C-0.539885 11.4679 2.29277 4.49224 8.37049 1.92286Z" fill="white"/>
</mask>
<g mask="url(#mask0_0_38354)">
<path d="M18.2257 24.9714C24.9538 22.1291 28.09 14.4034 25.2306 7.71557C22.3712 1.02771 14.599 -2.08974 7.87097 0.752556C1.1429 3.59485 -1.99329 11.3206 0.866097 18.0084C3.72548 24.6963 11.4977 27.8137 18.2257 24.9714Z" fill="#52352D"/>
<path fill-rule="evenodd" clip-rule="evenodd" d="M7.95443 0.745736C14.6288 -2.07278 22.3384 1.01996 25.1785 7.65536C28.014 14.2936 24.9027 21.9571 18.2274 24.7765C11.553 27.5987 3.83965 24.506 1.00419 17.8678C-1.8322 11.2324 1.27914 3.56889 7.95443 0.745736Z" fill="#55372D"/>
<path fill-rule="evenodd" clip-rule="evenodd" d="M8.0334 0.746271C14.6563 -2.05179 22.3089 1.01678 25.1238 7.59919C27.9387 14.1816 24.8488 21.7856 18.2259 24.5837C11.6048 27.3818 3.95509 24.3132 1.14021 17.7308C-1.67468 11.1484 1.41234 3.54433 8.0334 0.746271Z" fill="#58392D"/>
<path fill-rule="evenodd" clip-rule="evenodd" d="M8.11979 0.740169C14.6894 -2.03279 22.2784 1.01068 25.068 7.54011C27.8623 14.0733 24.8006 21.6178 18.2309 24.3908C11.6585 27.1674 4.0686 24.124 1.27896 17.5908C-1.51441 11.0614 1.54736 3.51685 8.11979 0.740169Z" fill="#5A3A2C"/>
<path fill-rule="evenodd" clip-rule="evenodd" d="M8.20138 0.735691C14.7177 -2.01589 22.2468 1.00248 25.0159 7.48357C27.7849 13.96 24.7475 21.4451 18.2312 24.1966C11.712 26.9529 4.18573 23.9308 1.41667 17.4534C-1.3552 10.976 1.68226 3.49192 8.20138 0.735691Z" fill="#5D3C2C"/>
<path fill-rule="evenodd" clip-rule="evenodd" d="M8.28242 0.732329C14.7492 -1.99508 22.2147 0.99912 24.9622 7.4235C27.7107 13.8516 24.6976 21.2734 18.2308 24.0046C11.7678 26.7357 4.29857 23.7415 1.55101 17.3134C-1.1928 10.889 1.81941 3.46439 8.28242 0.732329Z" fill="#603E2C"/>
<path fill-rule="evenodd" clip-rule="evenodd" d="M8.36759 0.731248C14.7773 -1.9785 22.183 0.991533 24.9099 7.36665C27.636 13.738 24.6444 21.1041 18.2346 23.8101C11.8212 26.5208 4.41553 23.5508 1.68855 17.1757C-1.03375 10.7996 1.95321 3.43821 8.36759 0.731248Z" fill="#63402C"/>
<path fill-rule="evenodd" clip-rule="evenodd" d="M8.44827 0.728673C14.8056 -1.96063 22.1514 0.988028 24.8569 7.30737C27.5586 13.6295 24.596 20.9314 18.2349 23.617C11.8748 26.3063 4.528 23.3576 1.82721 17.0383C-0.875455 10.7162 2.08812 3.41425 8.44827 0.728673Z" fill="#65412B"/>
<path fill-rule="evenodd" clip-rule="evenodd" d="M8.53005 0.725843C14.8378 -1.93836 22.1238 0.98148 24.8049 7.25155C27.4852 13.5216 24.5431 20.7603 18.2353 23.4255C11.9313 26.0897 4.64532 23.1689 1.9651 16.8988C-0.71512 10.6287 2.22601 3.39004 8.53005 0.725843Z" fill="#68432B"/>
<path fill-rule="evenodd" clip-rule="evenodd" d="M8.61474 0.722144C14.8664 -1.92161 22.0916 0.974992 24.7512 7.19208C27.4071 13.4092 24.4931 20.5921 18.2387 23.2321C11.9842 25.8759 4.76181 22.9756 2.10216 16.7622C-0.557481 10.5451 2.36027 3.36217 8.61474 0.722144Z" fill="#6B452B"/>
<path fill-rule="evenodd" clip-rule="evenodd" d="M8.69611 0.717857C14.8973 -1.90079 22.0598 0.970704 24.6942 7.13573C27.3323 13.2998 24.4398 20.4195 18.2387 23.0382C12.0375 25.6615 4.87404 22.7853 2.23964 16.6212C-0.394752 10.4562 2.49401 3.33744 8.69611 0.717857Z" fill="#6E472B"/>
<path fill-rule="evenodd" clip-rule="evenodd" d="M8.7778 0.714679C14.9266 -1.88259 22.0283 0.964738 24.6422 7.07678C27.255 13.1879 24.3906 20.2481 18.2418 22.8463C12.0939 25.4436 4.99127 22.5972 2.37838 16.4851C-0.235441 10.3722 2.62901 3.30916 8.7778 0.714679Z" fill="#70482A"/>
<path fill-rule="evenodd" clip-rule="evenodd" d="M8.86127 0.712518C14.9577 -1.8643 21.9958 0.961647 24.5882 7.0207C27.1805 13.0798 24.3375 20.0805 18.2411 22.6536C12.1456 25.2304 5.10373 22.4045 2.51516 16.3454C-0.0771557 10.2854 2.76578 3.28562 8.86127 0.712518Z" fill="#734A2A"/>
<path fill-rule="evenodd" clip-rule="evenodd" d="M8.94276 0.707183C14.9859 -1.84825 21.9679 0.952594 24.5359 6.95959C27.103 12.9666 24.2881 19.9069 18.2412 22.4586C12.199 25.0113 5.22075 22.2132 2.65275 16.2062C0.0819477 10.2001 2.89964 3.2589 8.94276 0.707183Z" fill="#764C2A"/>
<path fill-rule="evenodd" clip-rule="evenodd" d="M9.02444 0.705072C15.018 -1.8262 21.9364 0.947695 24.4829 6.9045C27.0285 12.8585 24.236 19.7365 18.2453 22.2678C12.2555 24.7991 5.33423 22.0215 2.78774 16.0674C0.24499 10.1134 3.03462 3.23634 9.02444 0.705072Z" fill="#794E2A"/>
<path fill-rule="evenodd" clip-rule="evenodd" d="M9.10868 0.700126C15.0461 -1.80976 21.9047 0.942749 24.4297 6.84377C26.9509 12.7485 24.1828 19.5661 18.2454 22.0732C12.3089 24.5831 5.45027 21.8306 2.92529 15.9296C0.404049 10.0248 3.16843 3.20723 9.10868 0.700126Z" fill="#7B4F29"/>
<path fill-rule="evenodd" clip-rule="evenodd" d="M9.19058 0.696906C15.0738 -1.78881 21.8725 0.93488 24.3732 6.78757C26.8767 12.6356 24.1328 19.3937 18.2487 21.8794C12.3618 24.3652 5.56302 21.6405 3.06236 15.7888C0.561692 9.9398 3.30644 3.1817 9.19058 0.696906Z" fill="#7E5129"/>
<path fill-rule="evenodd" clip-rule="evenodd" d="M9.27516 0.694117C15.106 -1.77022 21.8411 0.933021 24.3203 6.729C26.7994 12.5278 24.08 19.2227 18.2491 21.6879C12.4183 24.1513 5.68033 21.449 3.20024 15.6521C0.722023 9.85335 3.44058 3.15846 9.27516 0.694117Z" fill="#815329"/>
<path fill-rule="evenodd" clip-rule="evenodd" d="M9.35651 0.689589C15.134 -1.7543 21.8131 0.924775 24.2679 6.67149C26.7256 12.4154 24.0304 19.0536 18.2491 21.4938C12.4716 23.9367 5.79348 21.2586 3.33864 15.5119C0.880062 9.76795 3.57524 3.12976 9.35651 0.689589Z" fill="#845529"/>
<path fill-rule="evenodd" clip-rule="evenodd" d="M9.43788 0.686342C15.1668 -1.73152 21.7813 0.921527 24.2137 6.61247C26.648 12.3062 23.978 18.8821 18.2529 21.3009C12.524 23.7197 5.90946 21.0657 3.47612 15.3748C1.04279 9.68104 3.70898 3.10606 9.43788 0.686342Z" fill="#865628"/>
<path fill-rule="evenodd" clip-rule="evenodd" d="M9.51943 0.68358C15.195 -1.71476 21.7497 0.915047 24.1615 6.55672C26.5743 12.1947 23.9286 18.7102 18.2531 21.1076C12.5775 23.5059 6.02654 20.8761 3.61379 15.2344C1.20196 9.59647 3.84758 3.08099 9.51943 0.68358Z" fill="#895828"/>
<path d="M18.2542 20.9161C23.8757 18.5412 26.4962 12.0861 24.107 6.4981C21.7179 0.910118 15.2239 -1.69464 9.60236 0.680209C3.98078 3.05506 1.36036 9.51021 3.74949 15.0982C6.13862 20.6862 12.6326 23.2909 18.2542 20.9161Z" fill="#8C5A28"/>
<path fill-rule="evenodd" clip-rule="evenodd" d="M9.69177 0.735737C15.2187 -1.59846 21.6041 0.964416 23.9523 6.45828C26.3043 11.9521 23.7091 18.2641 18.1785 20.5992C12.6516 22.9334 6.28305 20.4095 3.93482 14.9157C1.58659 9.42088 4.16113 3.07458 9.69177 0.735737Z" fill="#8F5D2C"/>
<path fill-rule="evenodd" clip-rule="evenodd" d="M9.77981 0.796327C15.2123 -1.50069 21.491 1.02036 23.8009 6.41941C26.1108 11.8231 23.5391 17.9872 18.1038 20.2833C12.6686 22.5794 6.43187 20.1355 4.12198 14.7364C1.81303 9.33366 4.34455 3.09148 9.77981 0.796327Z" fill="#91612F"/>
<path fill-rule="evenodd" clip-rule="evenodd" d="M9.86439 0.855999C15.208 -1.40197 21.3774 1.07352 23.6442 6.38147C25.9158 11.6894 23.3693 17.7094 18.0294 19.9637C12.6858 22.2207 6.5763 19.8624 4.30476 14.5507C2.03414 9.24181 4.52452 3.10932 9.86439 0.855999Z" fill="#946433"/>
<path fill-rule="evenodd" clip-rule="evenodd" d="M9.95276 0.911303C15.201 -1.30391 21.2619 1.12883 23.4932 6.34196C25.7217 11.5588 23.2005 17.4319 17.9523 19.6472C12.7078 21.8661 6.72172 19.5877 4.4932 14.3708C2.26093 9.15396 4.70829 3.13023 9.95276 0.911303Z" fill="#976837"/>
<path fill-rule="evenodd" clip-rule="evenodd" d="M10.0415 0.970975C15.1971 -1.20519 21.1486 1.18199 23.3378 6.30402C25.5308 11.4261 23.0302 17.1551 17.8783 19.3313C12.7255 21.5084 6.86563 19.3108 4.67638 14.1888C2.48713 9.06676 4.88866 3.14807 10.0415 0.970975Z" fill="#9A6B3B"/>
<path fill-rule="evenodd" clip-rule="evenodd" d="M10.1298 1.03027C15.191 -1.10686 21.0358 1.23756 23.1867 6.26478C25.3367 11.2957 22.865 16.8779 17.8038 19.015C12.7436 21.1531 7.01469 19.0364 4.86379 14.0055C2.71381 8.97917 5.07233 3.16832 10.1298 1.03027Z" fill="#9C6F3E"/>
<path fill-rule="evenodd" clip-rule="evenodd" d="M10.2172 1.08754C15.183 -1.0124 20.9222 1.29112 23.0301 6.22723C25.1426 11.1624 22.6953 16.6005 17.7258 18.6967C12.76 20.7957 7.15918 18.7627 5.04755 13.8238C2.93498 8.88771 5.25235 3.18655 10.2172 1.08754Z" fill="#9F7242"/>
<path fill-rule="evenodd" clip-rule="evenodd" d="M10.3058 1.14729C15.18 -0.91361 20.8088 1.34715 22.8784 6.18844C24.9479 11.0335 22.5258 16.3237 17.6516 18.3809C12.7775 20.4418 7.30391 18.4897 5.23062 13.6447C3.16107 8.80058 5.43168 3.20447 10.3058 1.14729Z" fill="#A27646"/>
<path fill-rule="evenodd" clip-rule="evenodd" d="M10.394 1.20305C15.1727 -0.816013 20.6931 1.3992 22.7234 6.14939C24.7574 10.9024 22.3558 16.0458 17.578 18.0639C12.7992 20.083 7.44816 18.2117 5.41789 13.4615C3.38762 8.71227 5.61615 3.22119 10.394 1.20305Z" fill="#A47949"/>
<path fill-rule="evenodd" clip-rule="evenodd" d="M10.4823 1.26234C15.1685 -0.717678 20.5795 1.45477 22.5714 6.11015C24.5633 10.7692 22.1861 15.7676 17.5027 17.7477C12.8166 19.7277 7.59358 17.9373 5.60166 13.2791C3.61253 8.62004 5.79524 3.24237 10.4823 1.26234Z" fill="#A77C4D"/>
<path fill-rule="evenodd" clip-rule="evenodd" d="M10.5711 1.32249C15.1629 -0.618491 20.4672 1.50841 22.4198 6.07175C24.3697 10.6398 22.0215 15.4913 17.426 17.4285C12.8352 19.3704 7.74223 17.6637 5.78958 13.0967C3.83599 8.5333 5.97661 3.25975 10.5711 1.32249Z" fill="#AA8051"/>
<path fill-rule="evenodd" clip-rule="evenodd" d="M10.6555 1.37956C15.1547 -0.520515 20.3533 1.56176 22.2639 6.03401C24.1745 10.5063 21.8506 15.2146 17.3514 17.1128C12.8513 19.0129 7.88648 17.3871 5.97218 12.9176C4.06161 8.44629 6.15921 3.27778 10.6555 1.37956Z" fill="#AC8354"/>
<path fill-rule="evenodd" clip-rule="evenodd" d="M10.744 1.43885C15.1515 -0.422181 20.237 1.61734 22.1092 5.99477C23.9842 10.3759 21.6818 14.9365 17.2781 16.7975C12.8696 18.6576 8.03196 17.1126 6.15974 12.7352C4.28845 8.35778 6.34023 3.29896 10.744 1.43885Z" fill="#AF8758"/>
<path fill-rule="evenodd" clip-rule="evenodd" d="M10.832 1.49375C15.1441 -0.328241 20.124 1.67316 21.9569 5.95578C23.7908 10.2421 21.5127 14.6586 17.2006 16.4806C12.8913 18.3026 8.17707 16.8385 6.34318 12.5521C4.51117 8.2658 6.51993 3.31575 10.832 1.49375Z" fill="#B28A5C"/>
<path fill-rule="evenodd" clip-rule="evenodd" d="M10.9209 1.55429C15.1376 -0.224944 20.0117 1.72626 21.8054 5.91777C23.5963 10.113 21.3425 14.3826 17.1258 16.1618C12.9091 17.9448 8.32107 16.5653 6.53114 12.371C4.73653 8.17946 6.70415 3.33817 10.9209 1.55429Z" fill="#B58E60"/>
<path fill-rule="evenodd" clip-rule="evenodd" d="M11.0086 1.60919C15.1336 -0.131929 19.8984 1.77837 21.6499 5.87879C23.4015 9.9792 21.1767 14.1038 17.0517 15.8449C12.9266 17.586 8.46955 16.2874 6.71422 12.187C4.96264 8.09028 6.88349 3.35496 11.0086 1.60919Z" fill="#B79163"/>
<path fill-rule="evenodd" clip-rule="evenodd" d="M11.0968 1.67085C15.1265 -0.0321543 19.7846 1.83539 21.4978 5.84098C23.2102 9.8503 21.0069 13.828 16.9735 15.531C12.9438 17.2331 8.6139 16.0144 6.90066 12.0088C5.18741 8.00042 7.06712 3.37386 11.0968 1.67085Z" fill="#BA9467"/>
<path fill-rule="evenodd" clip-rule="evenodd" d="M11.1856 1.73C15.1237 0.0660336 19.6686 1.89174 21.3426 5.80252C23.0166 9.71609 20.8385 13.5506 16.9005 15.2146C12.9662 16.8748 8.75979 15.7408 7.08583 11.8263C5.41186 7.91269 7.24855 3.39396 11.1856 1.73Z" fill="#BD986B"/>
<path fill-rule="evenodd" clip-rule="evenodd" d="M11.2738 1.78615C15.1155 0.164952 19.5548 1.94511 21.1904 5.76386C22.8223 9.58726 20.6677 13.2731 16.825 14.8952C12.9824 16.5201 8.90408 15.4678 7.27219 11.6444C5.63657 7.82476 7.42743 3.412 11.2738 1.78615Z" fill="#BF9B6E"/>
<path fill-rule="evenodd" clip-rule="evenodd" d="M11.362 1.84497C15.1092 0.262814 19.4428 2.00021 21.0354 5.72507C22.628 9.45272 20.4986 12.9954 16.7514 14.5785C13.0004 16.1616 9.04833 15.1892 7.45572 11.4606C5.86312 7.7367 7.61096 3.42899 11.362 1.84497Z" fill="#C29F72"/>
<path fill-rule="evenodd" clip-rule="evenodd" d="M11.4497 1.90056C15.1053 0.355584 19.3295 2.05115 20.8837 5.68491C22.4371 9.32239 20.332 12.7172 16.6736 14.2613C13.018 15.8063 9.19682 14.9148 7.64255 11.281C6.08922 7.64355 7.79125 3.44832 11.4497 1.90056Z" fill="#C5A276"/>
<path fill-rule="evenodd" clip-rule="evenodd" d="M11.5352 1.96108C15.0982 0.455145 19.213 2.10888 20.728 5.64782C22.2439 9.18955 20.1631 12.4403 16.6001 13.9463C13.0361 15.4485 9.34217 14.6416 7.82718 11.0989C6.31126 7.5572 7.97494 3.46701 11.5352 1.96108Z" fill="#C8A67A"/>
<path fill-rule="evenodd" clip-rule="evenodd" d="M11.6226 2.02044C15.0949 0.553549 19.0994 2.16081 20.576 5.60865C22.0489 9.05928 19.9934 12.1632 16.5248 13.6273C13.0534 15.0942 9.48667 14.3644 8.01377 10.9166C6.53712 7.46875 8.15498 3.48454 11.6226 2.02044Z" fill="#CAA97D"/>
<path fill-rule="evenodd" clip-rule="evenodd" d="M11.7113 2.07798C15.0873 0.652923 18.9861 2.21835 20.4206 5.57044C21.8542 8.92719 19.824 11.8861 16.4508 13.3121C13.0748 14.7371 9.63054 14.091 8.19691 10.7352C6.76328 7.38221 8.33906 3.50676 11.7113 2.07798Z" fill="#CDAD81"/>
<path fill-rule="evenodd" clip-rule="evenodd" d="M11.7997 2.13616C15.0813 0.74921 18.8743 2.27002 20.2696 5.53473C21.664 8.79573 19.6543 11.6077 16.3737 12.9947C13.0921 14.3816 9.77974 13.8164 8.38539 10.5545C6.9901 7.28979 8.51912 3.5231 11.7997 2.13616Z" fill="#D0B085"/>
<path fill-rule="evenodd" clip-rule="evenodd" d="M11.8883 2.19335C15.0773 0.849166 18.7609 2.32721 20.1132 5.49339C21.4692 8.66328 19.4885 11.3321 16.2996 12.6763C13.1097 14.0242 9.92445 13.5399 8.56844 10.3728C7.21243 7.2029 8.69937 3.54218 11.8883 2.19335Z" fill="#D2B388"/>
<path fill-rule="evenodd" clip-rule="evenodd" d="M11.976 2.25356C15.0696 0.947489 18.6438 2.37998 19.9615 5.45506C21.2754 8.53386 19.3181 11.054 16.2245 12.36C13.1272 13.6698 10.0692 13.2664 8.75527 10.1904C7.4376 7.11531 8.88245 3.56242 11.976 2.25356Z" fill="#D5B78C"/>
<path fill-rule="evenodd" clip-rule="evenodd" d="M12.0652 2.31187C15.0662 1.04391 18.531 2.43458 19.8066 5.41484C21.0813 8.39881 19.1492 10.7758 16.1473 12.0428C13.1454 13.3108 10.2145 12.991 8.93986 10.007C7.66428 7.02302 9.06237 3.5789 12.0652 2.31187Z" fill="#D8BA90"/>
<path fill-rule="evenodd" clip-rule="evenodd" d="M12.1533 2.36868C15.0598 1.14069 18.4181 2.48859 19.6544 5.38147C20.8907 8.27063 18.9801 10.4998 16.0736 11.7278C13.167 12.9567 10.3625 12.7187 9.12615 9.82955C7.89078 6.93574 9.24304 3.59759 12.1533 2.36868Z" fill="#DBBE94"/>
<path fill-rule="evenodd" clip-rule="evenodd" d="M12.2373 2.42659C15.0521 1.23671 18.3056 2.54279 19.4989 5.33713C20.6959 8.13519 18.8097 10.2203 15.9995 11.4073C13.1846 12.5972 10.5072 12.4392 9.31015 9.64484C8.11312 6.84678 9.42611 3.61367 12.2373 2.42659Z" fill="#DDC197"/>
<path fill-rule="evenodd" clip-rule="evenodd" d="M12.3259 2.48374C15.0491 1.3357 18.1885 2.59622 19.3472 5.29853C20.5012 8.0055 18.6439 9.94369 15.9207 11.0917C13.2021 12.2435 10.6519 12.1663 9.49697 9.46216C8.33922 6.75985 9.60638 3.6355 12.3259 2.48374Z" fill="#E0C59B"/>
<path fill-rule="evenodd" clip-rule="evenodd" d="M12.4143 2.54439C15.0421 1.43539 18.0758 2.65315 19.1925 5.26158C20.3119 7.87372 18.4752 9.66783 15.8473 10.7768C13.2204 11.8858 10.7974 11.8933 9.68076 9.28112C8.56509 6.66897 9.79111 3.65432 12.4143 2.54439Z" fill="#E3C89F"/>
<path fill-rule="evenodd" clip-rule="evenodd" d="M12.5026 2.6031C15.0379 1.53221 17.9622 2.70535 19.0395 5.22175C20.1169 7.74279 18.3054 9.38909 15.773 10.46C13.2405 11.5309 10.9418 11.6182 9.86825 9.09813C8.79092 6.5808 9.97018 3.67398 12.5026 2.6031Z" fill="#E5CBA2"/>
<path fill-rule="evenodd" clip-rule="evenodd" d="M12.5906 2.66116C15.0314 1.6321 17.8491 2.76248 18.8843 5.18871C19.9224 7.61121 18.1353 9.11343 15.6982 10.1453C13.2583 11.1743 11.0896 11.3426 10.0516 8.92007C9.01635 6.49478 10.1507 3.693 12.5906 2.66116Z" fill="#E8CFA6"/>
<path fill-rule="evenodd" clip-rule="evenodd" d="M12.6798 2.71906C15.0243 1.72904 17.7372 2.81387 18.7332 5.14528C19.7292 7.47948 17.9663 8.83481 15.6209 9.82483C13.2764 10.8148 11.2349 11.0668 10.2352 8.73628C9.23926 6.40115 10.3344 3.70907 12.6798 2.71906Z" fill="#EBD2AA"/>
<path fill-rule="evenodd" clip-rule="evenodd" d="M12.7678 2.77803C15.0207 1.82334 17.6205 2.86913 18.5781 5.10944C19.5385 7.34509 17.8009 8.55635 15.5472 9.50825C13.2943 10.4592 11.38 10.7929 10.4233 8.55263C9.46571 6.31325 10.515 3.72993 12.7678 2.77803Z" fill="#EDD6AD"/>
<path fill-rule="evenodd" clip-rule="evenodd" d="M12.855 2.83656C15.0134 1.9237 17.5066 2.92394 18.4249 5.07221C19.3433 7.2177 17.63 8.28115 15.4726 9.19401C13.3114 10.1069 11.5242 10.5177 10.6059 8.37225C9.69128 6.22769 10.6975 3.74848 12.855 2.83656Z" fill="#F0D9B1"/>
<path fill-rule="evenodd" clip-rule="evenodd" d="M12.9446 2.89485C15.0104 2.02011 17.3942 2.97851 18.2704 5.0329C19.1495 7.08265 17.4615 8.00294 15.3957 8.87675C13.3289 9.74685 11.669 10.2423 10.7937 8.19257C9.91461 6.13818 10.8778 3.76495 12.9446 2.89485Z" fill="#F3DDB5"/>
<path fill-rule="evenodd" clip-rule="evenodd" d="M13.0318 2.95107C15.0032 2.11909 17.2803 3.03194 18.1173 4.99058C18.9552 6.95294 17.2916 7.72543 15.3202 8.55741C13.3498 9.3894 11.817 9.96853 10.9763 8.00989C10.1393 6.04753 11.0577 3.78305 13.0318 2.95107Z" fill="#F6E0B9"/>
<path fill-rule="evenodd" clip-rule="evenodd" d="M13.117 3.00971C14.9957 2.21677 17.1644 3.0878 17.9621 4.95441C18.7608 6.81916 17.1214 7.44756 15.2464 8.2405C13.3676 9.03437 11.962 9.69438 11.1634 7.82684C10.3657 5.95929 11.2419 3.80358 13.117 3.00971Z" fill="#F8E4BC"/>
<path fill-rule="evenodd" clip-rule="evenodd" d="M13.2075 3.06795C14.9918 2.31406 17.0529 3.14046 17.8114 4.91412C18.5698 6.6887 16.9557 7.17023 15.1704 7.92319C13.3861 8.67709 12.1077 9.41797 11.3493 7.64432C10.5909 5.87066 11.4222 3.82185 13.2075 3.06795Z" fill="#FBE7C0"/>
<path fill-rule="evenodd" clip-rule="evenodd" d="M10.1348 23.5292C12.8309 24.3556 16.234 23.8546 16.2733 23.3684C16.3126 22.8822 14.7845 23.3126 10.5472 22.014C6.30993 20.7144 5.11945 19.7849 5.04744 20.1288C4.97543 20.4728 7.43869 22.7028 10.1348 23.5292Z" fill="#AD8357"/>
</g>
</svg>
