<svg width="42" height="42" viewBox="0 0 42 42" fill="none" xmlns="http://www.w3.org/2000/svg">
<mask id="mask0_0_38134" style="mask-type:luminance" maskUnits="userSpaceOnUse" x="0" y="0" width="42" height="42">
<path d="M17.9807 0.810418C29.2911 -0.987474 39.9277 6.66987 41.7364 17.9116C43.5462 29.1575 35.8428 39.7316 24.5282 41.5295C13.2189 43.3274 2.58224 35.6701 0.773538 24.4242C-1.03621 13.1814 6.66718 2.60831 17.9807 0.810418Z" fill="white"/>
</mask>
<g mask="url(#mask0_0_38134)">
<path d="M24.8803 43.7095C37.4039 41.7188 45.9328 30.0133 43.9301 17.5645C41.9274 5.11575 30.1516 -3.36219 17.6279 -1.37148C5.10431 0.619219 -3.42461 12.3247 -1.42194 24.7735C0.580736 37.2223 12.3566 45.7002 24.8803 43.7095Z" fill="#8E6B49"/>
<path fill-rule="evenodd" clip-rule="evenodd" d="M17.7685 -1.34365C30.1951 -3.31751 41.8783 5.09439 43.864 17.4468C45.8539 29.795 37.3914 41.4083 24.9648 43.3852C12.5392 45.3591 0.856024 36.9482 -1.1297 24.5959C-3.11958 12.2477 5.3429 0.630198 17.7685 -1.34365Z" fill="#8D6947"/>
<path fill-rule="evenodd" clip-rule="evenodd" d="M17.9117 -1.31197C30.2394 -3.2734 41.8278 5.07122 43.8021 17.3252C45.7722 29.5803 37.3763 41.1036 25.0486 43.0619C12.7199 45.0202 1.13147 36.6746 -0.842794 24.4205C-2.81289 12.1665 5.58294 0.646352 17.9117 -1.31197Z" fill="#8B6745"/>
<path fill-rule="evenodd" clip-rule="evenodd" d="M18.0518 -1.2845C30.2785 -3.23144 41.7804 5.04797 43.7349 17.2047C45.6894 29.3614 37.3602 40.7905 25.1345 42.7375C12.9005 44.6792 1.40274 36.4008 -0.55174 24.2441C-2.50622 12.0874 5.81881 0.658298 18.0518 -1.2845Z" fill="#8A6543"/>
<path fill-rule="evenodd" clip-rule="evenodd" d="M18.1905 -1.25838C30.3214 -3.18565 41.7296 5.02751 43.6674 17.0859C45.6105 29.1453 37.349 40.4813 25.217 42.4117C13.0861 44.3389 1.67784 36.1268 -0.261023 24.0674C-2.20301 12.0079 6.0585 0.668894 18.1905 -1.25838Z" fill="#896340"/>
<path fill-rule="evenodd" clip-rule="evenodd" d="M18.3314 -1.23104C30.3644 -3.14175 41.6779 5.00414 43.6001 16.9652C45.5275 28.9264 37.3316 40.1722 25.2986 42.0881C13.2655 43.9988 1.94891 35.8529 0.0256698 23.8918C-1.89757 11.9307 6.2973 0.684851 18.3314 -1.23104Z" fill="#88613E"/>
<path fill-rule="evenodd" clip-rule="evenodd" d="M18.4736 -1.19816C30.4077 -3.09853 41.6306 4.98112 43.5383 16.8449C45.4459 28.7118 37.3166 39.8687 25.3825 41.7639C13.4474 43.6601 2.22445 35.5805 0.316825 23.7167C-1.58976 11.8539 6.53847 0.697024 18.4736 -1.19816Z" fill="#865F3C"/>
<path fill-rule="evenodd" clip-rule="evenodd" d="M18.6107 -1.17302C30.4469 -3.05268 41.5793 4.96072 43.4713 16.7262C45.3622 28.4917 37.3006 39.5544 25.4644 41.4382C13.6282 43.3178 2.49899 35.3044 0.603862 23.5389C-1.2871 11.7735 6.77449 0.707677 18.6107 -1.17302Z" fill="#855D3A"/>
<path fill-rule="evenodd" clip-rule="evenodd" d="M18.7513 -1.14506C30.4907 -3.0092 41.5282 4.93796 43.4036 16.6061C45.2841 28.2743 37.2892 39.2459 25.5509 41.1142C13.8094 42.9794 2.77078 35.0322 0.895436 23.364C-0.98095 11.6927 7.00983 0.724247 18.7513 -1.14506Z" fill="#845B38"/>
<path fill-rule="evenodd" clip-rule="evenodd" d="M18.8939 -1.11317C30.5333 -2.96592 41.4772 4.91396 43.3411 16.489C45.2008 28.0588 37.2735 38.9373 25.6331 40.79C13.9936 42.6386 3.04563 34.7588 1.18591 23.1879C-0.677985 11.6139 7.24928 0.735437 18.8939 -1.11317Z" fill="#825936"/>
<path fill-rule="evenodd" clip-rule="evenodd" d="M19.0316 -1.08694C30.5773 -2.92002 41.4306 4.89051 43.2747 16.3662C45.1188 27.8398 37.2582 38.6271 25.7166 40.4654C14.1751 42.2985 3.32182 34.4838 1.47355 23.0112C-0.370559 11.5356 7.49006 0.746148 19.0316 -1.08694Z" fill="#815734"/>
<path fill-rule="evenodd" clip-rule="evenodd" d="M19.1732 -1.0581C30.6199 -2.8798 41.3795 4.87174 43.208 16.246C45.0406 27.6212 37.2466 38.3196 25.7988 40.1371C14.3562 41.9588 3.59249 34.2114 1.764 22.8331C-0.0644858 11.4578 7.72949 0.759459 19.1732 -1.0581Z" fill="#805631"/>
<path fill-rule="evenodd" clip-rule="evenodd" d="M19.3144 -1.03184C30.6591 -2.83387 41.3281 4.84728 43.1441 16.1242C44.957 27.4053 37.2296 38.0105 25.8849 39.8125C14.536 41.6187 3.86703 33.9375 2.05103 22.6565C0.238167 11.3785 7.9655 0.774336 19.3144 -1.03184Z" fill="#7F542F"/>
<path fill-rule="evenodd" clip-rule="evenodd" d="M19.4522 -0.999855C30.7022 -2.78947 41.2806 4.8244 43.0778 16.0082C44.8751 27.1878 37.2144 37.7019 25.9675 39.4926C14.7176 41.2791 4.14336 33.6642 2.34299 22.4814C0.545738 11.3018 8.20539 0.786651 19.4522 -0.999855Z" fill="#7D522D"/>
<path fill-rule="evenodd" clip-rule="evenodd" d="M19.5934 -0.972017C30.7455 -2.74714 41.2291 4.80153 43.0108 15.887C44.7955 26.9724 37.2025 37.3934 26.0504 39.1643C14.8983 40.9384 4.41468 33.3908 2.63305 22.3054C0.84726 11.224 8.44131 0.798964 19.5934 -0.972017Z" fill="#7C502B"/>
<path fill-rule="evenodd" clip-rule="evenodd" d="M19.7351 -0.945892C30.7851 -2.70135 41.1782 4.78107 42.9442 15.7651C44.7133 26.7522 37.1869 37.0841 26.1327 38.8396C15.0827 40.5981 4.68964 33.1157 2.91947 22.1286C1.1545 11.1405 8.68086 0.809563 19.7351 -0.945892Z" fill="#7B4E29"/>
<path fill-rule="evenodd" clip-rule="evenodd" d="M19.8722 -0.918614C30.8275 -2.65854 41.1268 4.7566 42.8803 15.6475C44.6307 26.5373 37.171 36.774 26.2146 38.5139C15.2635 40.2569 4.9642 32.8418 3.21068 21.952C1.46133 11.0611 8.92002 0.82442 19.8722 -0.918614Z" fill="#794C27"/>
<path fill-rule="evenodd" clip-rule="evenodd" d="M20.0141 -0.886628C30.8715 -2.61414 41.0802 4.73373 42.814 15.5263C44.5518 26.3188 37.1556 36.4665 26.3013 38.1909C15.445 39.9184 5.23626 32.5695 3.50148 21.777C1.76359 10.9844 9.15667 0.83674 20.0141 -0.886628Z" fill="#784A25"/>
<path fill-rule="evenodd" clip-rule="evenodd" d="M20.156 -0.86053C30.9145 -2.56837 41.0295 4.71428 42.7476 15.4043C44.4699 26.0996 37.1445 36.1572 26.3849 37.865C15.6264 39.577 5.51143 32.2954 3.78915 21.6002C2.07104 10.906 9.39644 0.852487 20.156 -0.86053Z" fill="#774822"/>
<path fill-rule="evenodd" clip-rule="evenodd" d="M20.2937 -0.831146C30.9543 -2.52346 40.9787 4.69191 42.6843 15.2888C44.3878 25.8857 37.128 35.8492 26.4674 37.5425C15.8068 39.239 5.78345 32.0184 4.08096 21.4257C2.3743 10.8288 9.63306 0.86531 20.2937 -0.831146Z" fill="#764620"/>
<path fill-rule="evenodd" clip-rule="evenodd" d="M20.4352 -0.800318C30.998 -2.48125 40.9276 4.66788 42.6176 15.1675C44.3045 25.6671 37.1124 35.5405 26.5496 37.2173C15.9879 38.8982 6.05829 31.7491 4.37141 21.2495C2.68037 10.7499 9.87249 0.876473 20.4352 -0.800318Z" fill="#74441E"/>
<path d="M26.633 36.8936C37.097 35.2303 44.2233 25.4499 42.55 15.0484C40.8767 4.647 31.0374 -2.43666 20.5734 -0.773349C10.1095 0.889962 2.9832 10.6704 4.65651 21.0718C6.32982 31.4733 16.1691 38.5569 26.633 36.8936Z" fill="#73421C"/>
<path fill-rule="evenodd" clip-rule="evenodd" d="M20.6981 -0.640229C30.989 -2.27458 40.6625 4.69134 42.3109 14.9208C43.954 25.1461 36.9306 34.6914 26.6396 36.3299C16.3528 37.9642 6.69078 31.0728 5.04764 20.8424C3.3993 10.6129 10.4071 0.99723 20.6981 -0.640229Z" fill="#764620"/>
<path fill-rule="evenodd" clip-rule="evenodd" d="M20.8241 -0.504262C30.938 -2.11067 40.4501 4.73312 42.0662 14.7908C43.6823 24.8443 36.7619 34.1556 26.648 35.762C16.534 37.3726 7.05214 30.6695 5.43607 20.6161C3.81584 10.5584 10.706 1.10215 20.8241 -0.504262Z" fill="#7A4A24"/>
<path fill-rule="evenodd" clip-rule="evenodd" d="M20.946 -0.37054C30.8871 -1.949 40.2336 4.77783 41.8226 14.6636C43.4158 24.5453 36.5964 33.6176 26.6554 35.2002C16.7143 36.7797 7.41459 30.2671 5.82248 20.3865C4.23348 10.5007 11.0049 1.20896 20.946 -0.37054Z" fill="#7D4E28"/>
<path fill-rule="evenodd" clip-rule="evenodd" d="M21.0676 -0.234402C30.8359 -1.78595 40.022 4.82392 41.5829 14.5338C43.1438 24.2436 36.4275 33.0809 26.6593 34.6335C16.8921 36.1851 7.77255 29.865 6.21167 20.1552C4.64975 10.4453 11.3035 1.31818 21.0676 -0.234402Z" fill="#80522C"/>
<path fill-rule="evenodd" clip-rule="evenodd" d="M21.1935 -0.101107C30.7847 -1.62574 39.8053 4.86716 41.3391 14.4052C42.8729 23.9381 36.2619 32.5456 26.6675 34.0702C17.0721 35.5949 8.13377 29.4622 6.59997 19.9241C5.06616 10.3902 11.5981 1.42353 21.1935 -0.101107Z" fill="#845630"/>
<path fill-rule="evenodd" clip-rule="evenodd" d="M21.3161 0.0351496C30.7334 -1.46154 39.5936 4.91337 41.0993 14.2754C42.6061 23.6365 36.0939 32.0101 26.6766 33.5068C17.2582 35.0035 8.49686 29.0591 6.99013 19.6971C5.48444 10.335 11.8977 1.53288 21.3161 0.0351496Z" fill="#875A34"/>
<path fill-rule="evenodd" clip-rule="evenodd" d="M21.4418 0.16985C30.6863 -1.29993 39.3778 4.95802 40.8554 14.1472C42.334 23.3375 35.925 31.472 26.6794 32.9418C17.4339 34.4116 8.85378 28.6577 7.37933 19.4674C5.90071 10.2782 12.1963 1.63859 21.4418 0.16985Z" fill="#8A5E38"/>
<path fill-rule="evenodd" clip-rule="evenodd" d="M21.5634 0.300979C30.635 -1.13775 39.161 5.00324 40.6115 14.0175C42.063 23.0349 35.7591 30.9355 26.6875 32.3732C17.6148 33.8161 9.21587 28.2537 7.76432 19.2394C6.31694 10.222 12.4917 1.74385 21.5634 0.300979Z" fill="#8E623C"/>
<path fill-rule="evenodd" clip-rule="evenodd" d="M21.685 0.438306C30.5837 -0.976616 38.9483 5.04741 40.3718 13.8889C41.791 22.7303 35.5902 30.3959 26.6946 31.8108C17.7958 33.2258 9.57696 27.8518 8.15353 19.0093C6.7301 10.1678 12.7904 1.85323 21.685 0.438306Z" fill="#916640"/>
<path fill-rule="evenodd" clip-rule="evenodd" d="M21.8107 0.571588C30.5325 -0.813317 38.7315 5.08961 40.1279 13.7592C41.5232 22.4289 35.4202 29.8606 26.6985 31.2444C17.9767 32.6314 9.93908 27.452 8.54273 18.7824C7.14637 10.1127 13.089 1.95856 21.8107 0.571588Z" fill="#946A44"/>
<path fill-rule="evenodd" clip-rule="evenodd" d="M21.9333 0.708102C30.4822 -0.652997 38.5198 5.13607 39.8839 13.6308C41.2532 22.1286 35.2565 29.3202 26.7076 30.6812C18.1587 32.0413 10.3012 27.0492 8.93292 18.5514C7.56468 10.0536 13.3875 2.06817 21.9333 0.708102Z" fill="#976E48"/>
<path fill-rule="evenodd" clip-rule="evenodd" d="M22.0594 0.840864C30.4313 -0.488147 38.3033 5.17982 39.6445 13.5017C40.9815 21.8277 35.0868 28.7853 26.7149 30.1143C18.3389 31.4475 10.6594 26.6479 9.32244 18.3209C7.98127 9.99904 13.6833 2.17402 22.0594 0.840864Z" fill="#9B724C"/>
<path fill-rule="evenodd" clip-rule="evenodd" d="M22.1806 0.977825C30.3796 -0.327381 38.0913 5.22362 39.4002 13.3737C40.7133 21.5237 34.9217 28.2505 26.7185 29.5516C18.5195 30.8537 11.0202 26.2456 9.70711 18.0956C8.39718 9.94555 13.9816 2.27993 22.1806 0.977825Z" fill="#9E7650"/>
<path fill-rule="evenodd" clip-rule="evenodd" d="M22.3066 1.11075C30.3286 -0.163402 37.8748 5.26961 39.1607 13.2437C40.4426 21.2219 34.752 27.7107 26.7268 28.9879C18.6996 30.2631 11.3815 25.8413 10.0965 17.8642C8.81369 9.88596 14.2804 2.38491 22.3066 1.11075Z" fill="#A17A54"/>
<path fill-rule="evenodd" clip-rule="evenodd" d="M22.429 1.24832C30.2782 -0.00306237 37.663 5.31299 38.9167 13.1194C40.1714 20.9216 34.5839 27.1765 26.7347 28.4227C18.8814 29.6699 11.7403 25.4407 10.4856 17.6384C9.23187 9.83204 14.5757 2.49556 22.429 1.24832Z" fill="#A57E58"/>
<path fill-rule="evenodd" clip-rule="evenodd" d="M22.5508 1.38142C30.2303 0.162126 37.4464 5.35707 38.673 12.9865C39.8996 20.621 34.4183 26.6368 26.743 27.8571C19.0626 29.0806 12.1016 25.0387 10.876 17.4082C9.64835 9.7778 14.8745 2.60072 22.5508 1.38142Z" fill="#A8825C"/>
<path fill-rule="evenodd" clip-rule="evenodd" d="M22.6766 1.51404C30.179 0.321658 37.2295 5.39861 38.4333 12.8572C39.6328 20.3158 34.2494 26.1008 26.7459 27.2931C19.2435 28.4855 12.4638 24.6341 11.2642 17.1765C10.0646 9.71893 15.1732 2.70643 22.6766 1.51404Z" fill="#AB8660"/>
<path fill-rule="evenodd" clip-rule="evenodd" d="M22.7987 1.6506C30.1283 0.486165 37.0174 5.44615 38.1899 12.7319C39.3613 20.0146 34.0799 25.5645 26.7545 26.73C19.425 27.8944 12.8222 24.2324 11.6497 16.9498C10.4783 9.66401 15.4681 2.81504 22.7987 1.6506Z" fill="#AF8A64"/>
<path fill-rule="evenodd" clip-rule="evenodd" d="M22.9247 1.78351C30.0772 0.645979 36.8018 5.49004 37.9462 12.6029C39.0906 19.7138 33.9154 25.0257 26.7618 26.1632C19.6051 27.3007 13.1835 23.8333 12.0392 16.7194C10.8948 9.60956 15.7669 2.92103 22.9247 1.78351Z" fill="#B28E68"/>
<path fill-rule="evenodd" clip-rule="evenodd" d="M23.0463 1.91906C30.026 0.809479 36.5892 5.53554 37.7054 12.4735C38.8227 19.4115 33.7454 24.4895 26.7657 25.6001C19.786 26.7097 13.5457 23.4306 12.4284 16.4916C11.3121 9.55363 16.0655 3.02967 23.0463 1.91906Z" fill="#B5926C"/>
<path fill-rule="evenodd" clip-rule="evenodd" d="M23.1668 2.05345C29.9747 0.970782 36.3723 5.57885 37.4615 12.345C38.5507 19.1081 33.5807 23.9511 26.7738 25.0338C19.9659 26.1164 13.9067 23.0278 12.8176 16.2617C11.7284 9.4955 16.3642 3.13612 23.1668 2.05345Z" fill="#B99770"/>
<path fill-rule="evenodd" clip-rule="evenodd" d="M23.2942 2.18967C29.924 1.13391 36.1602 5.62191 37.2182 12.2163C38.2803 18.8065 33.4123 23.4156 26.7783 24.4703C20.1474 25.5219 14.2653 22.6248 13.2073 16.0315C12.1452 9.44024 16.6602 3.24129 23.2942 2.18967Z" fill="#BC9B74"/>
<path fill-rule="evenodd" clip-rule="evenodd" d="M23.4149 2.32232C29.8729 1.29865 35.9446 5.66866 36.9786 12.087C38.0084 18.5054 33.2425 22.8796 26.7855 23.9032C20.3285 24.931 14.6265 22.2233 13.5925 15.8039C12.5626 9.38658 16.9589 3.35117 23.4149 2.32232Z" fill="#BF9F78"/>
<path fill-rule="evenodd" clip-rule="evenodd" d="M23.5416 2.45888C29.8247 1.45798 35.7309 5.70999 36.7336 11.9566C37.7416 18.2031 33.0777 22.3392 26.7936 23.3391C20.5094 24.3369 14.9886 21.8196 13.9817 15.573C12.9789 9.33062 17.2575 3.45564 23.5416 2.45888Z" fill="#C3A37C"/>
<path fill-rule="evenodd" clip-rule="evenodd" d="M23.6635 2.59209C29.7695 1.62224 35.5153 5.75833 36.4941 11.8289C37.4698 17.9026 32.908 21.8038 26.7967 22.7736C20.6906 23.7476 15.3457 21.4167 14.3711 15.3471C13.3954 9.27234 17.5564 3.56504 23.6635 2.59209Z" fill="#C6A780"/>
<path fill-rule="evenodd" clip-rule="evenodd" d="M23.7844 2.72404C29.7228 1.78214 35.303 5.80126 36.2506 11.699C37.1982 17.5978 32.7394 21.264 26.8052 22.21C20.8709 23.1519 15.7082 21.0145 14.7607 15.1157C13.8089 9.21695 17.8512 3.67008 23.7844 2.72404Z" fill="#C9AB84"/>
<path fill-rule="evenodd" clip-rule="evenodd" d="M23.9116 2.86217C29.6719 1.94822 35.0866 5.84521 36.0071 11.5722C36.9307 17.2981 32.574 20.7303 26.8136 21.6453C21.0522 22.5593 16.0697 20.6134 15.1461 14.8864C14.2256 9.16359 18.1502 3.77716 23.9116 2.86217Z" fill="#CDAF88"/>
<path fill-rule="evenodd" clip-rule="evenodd" d="M24.0321 2.99469C29.6207 2.10765 34.8698 5.89077 35.7663 11.4418C36.6597 16.9959 32.4051 20.1932 26.8207 21.0813C21.2321 21.9683 16.4308 20.2087 15.5343 14.6587C14.6419 9.10462 18.4488 3.88587 24.0321 2.99469Z" fill="#D0B38C"/>
<path fill-rule="evenodd" clip-rule="evenodd" d="M24.159 3.13231C29.5695 2.27218 34.6583 5.93524 35.5225 11.3134C36.3878 16.6957 32.2394 19.6559 26.8247 20.515C21.4132 21.3793 16.7889 19.8112 15.9235 14.4289C15.0593 9.05076 18.7433 3.99244 24.159 3.13231Z" fill="#D3B790"/>
<path fill-rule="evenodd" clip-rule="evenodd" d="M24.2798 3.26502C29.5175 2.43284 34.4417 5.9779 35.2789 11.1853C36.116 16.3916 32.0707 19.12 26.832 19.9532C21.5944 20.7854 17.1502 19.4098 16.313 14.1983C15.4758 8.99613 19.0422 4.09824 24.2798 3.26502Z" fill="#D7BB94"/>
<path fill-rule="evenodd" clip-rule="evenodd" d="M24.4014 3.40223C29.4662 2.59695 34.229 6.02506 35.0391 11.0554C35.8492 16.0899 31.9007 18.5803 26.8359 19.3856C21.7753 20.1908 17.5123 19.0067 16.7022 13.9722C15.8921 8.93667 19.3408 4.20647 24.4014 3.40223Z" fill="#DABF98"/>
<path fill-rule="evenodd" clip-rule="evenodd" d="M24.5279 3.53454C29.4157 2.75722 34.0129 6.06732 34.7959 10.9269C35.5779 15.7886 31.7367 18.044 26.8447 18.8223C21.957 19.5996 17.8752 18.6029 17.0921 13.7412C16.3101 8.88164 19.6401 4.3129 24.5279 3.53454Z" fill="#DDC39C"/>
<path fill-rule="evenodd" clip-rule="evenodd" d="M24.6497 3.67043C29.3646 2.92001 33.8005 6.11005 34.5512 10.7968C35.3072 15.4835 31.5669 17.5081 26.852 18.2544C22.1371 19.0058 18.2323 18.2005 17.4774 13.5128C16.7266 8.82604 19.9348 4.41774 24.6497 3.67043Z" fill="#E0C7A0"/>
<path fill-rule="evenodd" clip-rule="evenodd" d="M24.7755 3.80368C29.3175 3.08432 33.5836 6.15637 34.3115 10.6713C35.0393 15.1821 31.398 16.9686 26.8601 17.691C22.318 18.4145 18.5944 17.7976 17.8666 13.2827C17.1429 8.77195 20.2334 4.52615 24.7755 3.80368Z" fill="#E4CBA4"/>
<path fill-rule="evenodd" clip-rule="evenodd" d="M24.8981 3.93625C29.2673 3.2438 33.3731 6.19992 34.0687 10.5389C34.7684 14.8809 31.2333 16.4325 26.8651 17.1249C22.5001 17.8205 18.9524 17.3941 18.2568 13.052C17.5571 8.71304 20.53 4.63181 24.8981 3.93625Z" fill="#E7CFA8"/>
<path fill-rule="evenodd" clip-rule="evenodd" d="M25.0239 4.07288C29.2161 3.40527 33.1563 6.2465 33.8289 10.4136C34.4974 14.5797 31.0643 15.8943 26.8721 16.5619C22.6799 17.2264 19.3145 16.9924 18.646 12.8253C17.9734 8.65818 20.8286 4.73739 25.0239 4.07288Z" fill="#EAD3AC"/>
<path fill-rule="evenodd" clip-rule="evenodd" d="M25.1455 4.20555C29.1648 3.569 32.9436 6.28912 33.584 10.2844C34.2254 14.2798 30.8986 15.3583 26.8803 15.999C22.8609 16.6366 19.6756 16.59 19.0342 12.5947C18.3897 8.60351 21.1272 4.84729 25.1455 4.20555Z" fill="#EED7B0"/>
<path fill-rule="evenodd" clip-rule="evenodd" d="M25.2677 4.34391C29.1141 3.73426 32.7274 6.33328 33.3417 10.1557C33.9592 13.9792 30.7302 14.8228 26.8837 15.4335C23.0424 16.0431 20.0373 16.1922 19.4209 12.3687C18.8076 8.5452 21.4264 4.95355 25.2677 4.34391Z" fill="#F1DBB4"/>
<path fill-rule="evenodd" clip-rule="evenodd" d="M25.3936 4.47613C29.0631 3.8934 32.515 6.37546 33.1012 10.0271C33.6874 13.6747 30.5615 14.2843 26.892 14.866C23.2236 15.4529 20.3955 15.7841 19.8103 12.1376C19.2241 8.49111 21.7252 5.05887 25.3936 4.47613Z" fill="#F4DFB8"/>
<path fill-rule="evenodd" clip-rule="evenodd" d="M25.5154 4.61407C29.012 4.05825 32.2993 6.42335 32.8574 9.89803C33.4156 13.3737 30.3959 13.7484 26.8992 14.3043C23.4037 14.858 20.7578 15.3859 20.1986 11.9112C19.6405 8.43653 22.0198 5.16886 25.5154 4.61407Z" fill="#F8E3BC"/>
<path fill-rule="evenodd" clip-rule="evenodd" d="M25.6394 4.74642C28.961 4.21854 32.0838 6.46668 32.6149 9.76851C33.1459 13.0703 30.2262 13.2111 26.9045 13.739C23.5828 14.2669 21.1181 14.9831 20.5871 11.6813C20.056 8.37947 22.3177 5.2743 25.6394 4.74642Z" fill="#FBE7C0"/>
<path fill-rule="evenodd" clip-rule="evenodd" d="M12.3631 37.7381C16.8469 40.4252 23.2008 41.0348 23.4913 40.1767C23.7808 39.3187 20.835 39.4149 13.7876 35.1919C6.74024 30.9699 5.0138 28.7663 4.73057 29.3532C4.4463 29.9411 7.8794 35.0511 12.3631 37.7381Z" fill="#BE996A"/>
</g>
</svg>
