<svg width="47" height="47" viewBox="0 0 47 47" fill="none" xmlns="http://www.w3.org/2000/svg">
<mask id="mask0_2032_27" style="mask-type:luminance" maskUnits="userSpaceOnUse" x="-1" y="0" width="48" height="47">
<path d="M39.2611 6.48746C30.0813 -2.35657 15.4269 -2.13005 6.52969 6.99489C-2.37086 16.1187 -2.1441 30.6867 7.03571 39.5296C16.2155 48.378 30.8699 48.1515 39.7671 39.0266C48.6677 29.9027 48.4398 15.3348 39.2611 6.48746Z" fill="white"/>
</mask>
<g mask="url(#mask0_2032_27)">
<path d="M21.605 48.5617C7.47272 47.7758 -3.34285 35.7508 -2.55227 21.703C-1.76169 7.65519 10.3357 -3.09573 24.4679 -2.30988C38.6002 -1.52402 49.4157 10.501 48.6252 24.5488C47.8346 38.5966 35.7372 49.3475 21.605 48.5617Z" fill="#22261F"/>
<path fill-rule="evenodd" clip-rule="evenodd" d="M24.3783 -2.298C10.3561 -3.07747 -1.6453 7.58976 -2.43058 21.5281C-3.21474 35.4665 7.51776 47.3962 21.5399 48.1768C35.5621 48.9562 47.5635 38.289 48.3477 24.3495C49.133 10.4123 38.4005 -1.51741 24.3783 -2.298Z" fill="#232720"/>
<path fill-rule="evenodd" clip-rule="evenodd" d="M24.2895 -2.28119C10.3813 -3.05733 -1.52742 7.52663 -2.30376 21.3562C-3.08457 35.1813 7.56303 47.0199 21.4757 47.7905C35.384 48.5667 47.2927 37.9827 48.069 24.1532C48.8498 10.3281 38.2022 -1.50949 24.2895 -2.28119Z" fill="#232921"/>
<path fill-rule="evenodd" clip-rule="evenodd" d="M24.204 -2.2686C10.4019 -3.03586 -1.41074 7.46482 -2.18261 21.1811C-2.95448 34.8974 7.60934 46.6417 21.4081 47.4101C35.2057 48.1773 47.0218 37.6766 47.7936 23.9603C48.5666 10.2396 38.0039 -1.50023 24.204 -2.2686Z" fill="#242A21"/>
<path fill-rule="evenodd" clip-rule="evenodd" d="M24.1165 -2.25637C10.4272 -3.01585 -1.29163 7.396 -2.05903 21.0079C-2.82309 34.6154 7.65137 46.2631 21.3407 47.0226C35.0344 47.7865 46.7488 37.3702 47.5162 23.7627C48.2847 10.1552 37.8058 -1.49355 24.1165 -2.25637Z" fill="#242C22"/>
<path fill-rule="evenodd" clip-rule="evenodd" d="M24.0282 -2.23967C10.4484 -2.99471 -1.1733 7.33386 -1.93288 20.8314C-2.69135 34.3301 7.69821 45.8823 21.2769 46.6406C34.8567 47.3957 46.4795 37.0638 47.238 23.5651C47.9976 10.0676 37.6069 -1.48462 24.0282 -2.23967Z" fill="#252D23"/>
<path fill-rule="evenodd" clip-rule="evenodd" d="M23.9388 -2.22659C10.4695 -2.97275 -1.0594 7.27144 -1.81005 20.6602C-2.56516 34.0456 7.74397 45.5056 21.2099 46.2562C34.6802 47.0068 46.2091 36.7582 46.9598 23.3728C47.7149 9.98405 37.4091 -1.47598 23.9388 -2.22659Z" fill="#262E24"/>
<path fill-rule="evenodd" clip-rule="evenodd" d="M23.8511 -2.21008C10.4958 -2.95735 -0.940378 7.20689 -1.68768 20.4835C-2.43386 33.7634 7.78703 45.1268 21.1468 45.8697C34.5032 46.6114 45.9394 36.4505 46.6856 23.175C47.4329 9.89508 37.2109 -1.46836 23.8511 -2.21008Z" fill="#263025"/>
<path fill-rule="evenodd" clip-rule="evenodd" d="M23.7624 -2.19651C10.5166 -2.9349 -0.823611 7.14606 -1.56086 20.3127C-2.30369 33.4794 7.83343 44.7507 21.0793 45.489C34.3251 46.223 45.6641 36.1465 46.407 22.9798C47.1498 9.81204 37.0127 -1.45923 23.7624 -2.19651Z" fill="#273125"/>
<path fill-rule="evenodd" clip-rule="evenodd" d="M23.673 -2.18004C10.5378 -2.91399 -0.705212 7.07815 -1.43911 20.136C-2.173 33.1938 7.87922 44.3741 21.0167 45.1036C34.1519 45.8331 45.3949 35.8398 46.1288 22.782C46.8672 9.72414 36.8105 -1.45053 23.673 -2.18004Z" fill="#283226"/>
<path fill-rule="evenodd" clip-rule="evenodd" d="M23.5888 -2.1671C10.562 -2.89327 -0.587188 7.0167 -1.31661 19.9646C-2.04716 32.9136 7.92128 43.9973 20.9482 44.7223C33.9751 45.443 45.1242 35.5352 45.8547 22.5862C46.5842 9.64159 36.6113 -1.44203 23.5888 -2.1671Z" fill="#283427"/>
<path fill-rule="evenodd" clip-rule="evenodd" d="M23.5013 -2.15499C10.5838 -2.87228 -0.468123 6.95219 -1.1942 19.7924C-1.9158 32.6271 7.96886 43.6174 20.8807 44.3358C33.7981 45.052 44.8545 35.2275 45.5762 22.3918C46.2978 9.55155 36.4142 -1.43436 23.5013 -2.15499Z" fill="#293528"/>
<path fill-rule="evenodd" clip-rule="evenodd" d="M23.413 -2.13805C10.6095 -2.8509 -0.350864 6.8903 -1.068 19.6161C-1.78514 32.3431 8.01463 43.2413 20.8181 43.9497C33.6216 44.6625 44.5808 34.9214 45.298 22.1955C46.0151 9.46855 36.2154 -1.4252 23.413 -2.13805Z" fill="#293729"/>
<path fill-rule="evenodd" clip-rule="evenodd" d="M23.324 -2.12545C10.6311 -2.82942 -0.236552 6.82628 -0.944754 19.4444C-1.65296 32.0614 8.05745 42.8597 20.7548 43.5681C33.4488 44.2732 44.3109 34.6164 45.0236 21.9982C45.7329 9.38122 36.018 -1.41704 23.324 -2.12545Z" fill="#2A382A"/>
<path fill-rule="evenodd" clip-rule="evenodd" d="M23.2357 -2.10913C10.6523 -2.80977 -0.118167 6.76376 -0.823018 19.2675C-1.52675 31.7769 8.10323 42.4818 20.6878 43.1825C33.2712 43.882 44.0405 34.314 44.7454 21.8047C45.4502 9.29649 35.8191 -1.40849 23.2357 -2.10913Z" fill="#2B392A"/>
<path fill-rule="evenodd" clip-rule="evenodd" d="M23.1472 -2.09604C10.6766 -2.78779 -3.9493e-05 6.69802 -0.695954 19.0974C-1.39634 31.4924 8.14986 42.1052 20.6193 42.8014C33.0933 43.4932 43.7711 34.004 44.467 21.6091C45.1674 9.20854 35.6212 -1.39984 23.1472 -2.09604Z" fill="#2B3B2B"/>
<path fill-rule="evenodd" clip-rule="evenodd" d="M23.0617 -2.07983C10.6972 -2.76714 0.117783 6.63428 -0.57478 18.9204C-1.26623 31.211 8.1962 41.7272 20.5562 42.4157C32.9162 43.103 43.5002 33.6971 44.1883 21.411C44.8797 9.12482 35.4217 -1.3914 23.0617 -2.07983Z" fill="#2C3C2C"/>
<path fill-rule="evenodd" clip-rule="evenodd" d="M22.9739 -2.0662C10.7188 -2.75019 0.235454 6.57129 -0.451524 18.7486C-1.13515 30.9259 8.23791 41.3511 20.4885 42.0296C32.739 42.7135 43.2269 33.3921 43.9138 21.2147C44.5975 9.0374 35.2233 -1.38777 22.9739 -2.0662Z" fill="#2D3D2D"/>
<path fill-rule="evenodd" clip-rule="evenodd" d="M22.8845 -2.05361C10.7445 -2.72871 0.353821 6.50838 -0.328689 18.5769C-1.00896 30.641 8.28479 40.974 20.4259 41.6491C32.5669 42.3242 42.9565 33.086 43.6357 21.0219C44.3148 8.9534 35.0255 -1.37851 22.8845 -2.05361Z" fill="#2D3F2E"/>
<path fill-rule="evenodd" clip-rule="evenodd" d="M22.7962 -2.03716C10.7646 -2.70781 0.467751 6.446 -0.202471 18.4013C-0.878278 30.3598 8.33058 40.5963 20.3577 41.2625C32.3893 41.9331 42.6862 32.7793 43.3575 20.8252C44.0322 8.86548 34.8233 -1.36983 22.7962 -2.03716Z" fill="#2E402E"/>
<path fill-rule="evenodd" clip-rule="evenodd" d="M22.7076 -2.02675C10.7899 -2.68852 0.585785 6.37757 -0.0810862 18.2273C-0.747957 30.0727 8.37265 40.2169 20.2937 40.8787C32.2113 41.5416 42.4166 32.4755 43.0823 20.6257C43.7492 8.77928 34.6286 -1.36386 22.7076 -2.02675Z" fill="#2E422F"/>
<path d="M20.2285 40.497C8.42038 39.8404 -0.616463 29.793 0.0440989 18.0555C0.704661 6.31798 10.8125 -2.66485 22.6206 -2.00824C34.4286 -1.35163 43.4655 8.69579 42.8049 20.4333C42.1444 32.1708 32.0365 41.1536 20.2285 40.497Z" fill="#2F4330"/>
<path fill-rule="evenodd" clip-rule="evenodd" d="M22.6493 -1.89809C11.0354 -2.54432 1.09714 6.29082 0.44702 17.8308C-0.201978 29.3752 8.69411 39.1708 20.3035 39.8159C31.9173 40.4622 41.8478 31.7103 42.4968 20.1703C43.1469 8.62702 34.2586 -1.25297 22.6493 -1.89809Z" fill="#2F4431"/>
<path fill-rule="evenodd" clip-rule="evenodd" d="M22.6731 -1.78418C11.2581 -2.42153 1.48848 6.2626 0.847299 17.6094C0.210588 28.9561 8.96369 38.5041 20.3787 39.137C31.7937 39.7755 41.5477 31.2546 42.1844 19.9067C42.8256 8.55993 34.0892 -1.15128 22.6731 -1.78418Z" fill="#2F4531"/>
<path fill-rule="evenodd" clip-rule="evenodd" d="M22.7039 -1.67569C11.4821 -2.29639 1.88119 6.23674 1.2523 17.387C0.624525 28.5406 9.23912 37.8376 20.4598 38.4616C31.677 39.0868 41.2523 30.7968 41.8767 19.6466C42.5056 8.49299 33.9212 -1.05056 22.7039 -1.67569Z" fill="#304632"/>
<path fill-rule="evenodd" clip-rule="evenodd" d="M22.7295 -1.56228C11.7066 -2.17408 2.2732 6.20692 1.65771 17.1651C1.03776 28.1221 9.51271 37.1704 20.5356 37.7834C31.5541 38.3952 40.9528 30.3395 41.5683 19.3836C42.1849 8.42986 33.7524 -0.950467 22.7295 -1.56228Z" fill="#304832"/>
<path fill-rule="evenodd" clip-rule="evenodd" d="M22.7537 -1.45023C11.9296 -2.05427 2.66491 6.18128 2.05836 16.9407C1.45516 27.7012 9.78602 36.503 20.6112 37.1026C31.4353 37.7066 40.6531 29.8819 41.2608 19.1214C41.864 8.36203 33.5834 -0.850637 22.7537 -1.45023Z" fill="#304933"/>
<path fill-rule="evenodd" clip-rule="evenodd" d="M22.7841 -1.34008C12.1532 -1.9319 3.05833 6.15264 2.46295 16.721C1.86869 27.2872 10.0566 35.837 20.6874 36.4288C31.3183 37.0196 40.3584 29.4258 40.9527 18.8585C41.5481 8.29674 33.4105 -0.748256 22.7841 -1.34008Z" fill="#304A33"/>
<path fill-rule="evenodd" clip-rule="evenodd" d="M22.8091 -1.22662C12.3771 -1.80512 3.45082 6.12841 2.86437 16.4981C2.2824 26.8688 10.3318 35.171 20.7638 35.7495C31.1958 36.328 40.0595 28.9696 40.6448 18.5989C41.2279 8.22921 33.2422 -0.64812 22.8091 -1.22662Z" fill="#304B34"/>
<path fill-rule="evenodd" clip-rule="evenodd" d="M22.8391 -1.11433C12.6003 -1.68505 3.84275 6.10191 3.26971 16.275C2.69555 26.4482 10.6053 34.5027 20.8396 35.069C31.0772 35.6397 39.7633 28.5112 40.333 18.3336C40.906 8.16052 33.0734 -0.548043 22.8391 -1.11433Z" fill="#314C34"/>
<path fill-rule="evenodd" clip-rule="evenodd" d="M22.8644 -1.00428C12.8234 -1.56169 4.23115 6.07427 3.66928 16.0542C3.10853 26.0341 10.8798 33.8333 20.9152 34.3907C30.9551 34.9536 39.4636 28.055 40.0244 18.075C40.5851 8.09512 32.9044 -0.445773 22.8644 -1.00428Z" fill="#314D35"/>
<path fill-rule="evenodd" clip-rule="evenodd" d="M22.8931 -0.892221C13.0509 -1.44185 4.62287 6.04309 4.07441 15.8309C3.52594 25.6132 11.1486 33.1659 20.9942 33.7144C30.8364 34.2607 39.1639 27.5974 39.7168 17.8096C40.2642 8.02731 32.7342 -0.347034 22.8931 -0.892221Z" fill="#314E35"/>
<path fill-rule="evenodd" clip-rule="evenodd" d="M22.919 -0.778761C13.2756 -1.31507 5.01516 6.01887 4.4801 15.6079C3.93945 25.1992 11.4236 32.4987 21.0715 33.0362C30.7137 33.5725 38.8681 27.1401 39.4087 17.55C39.9483 7.96422 32.5669 -0.245788 22.919 -0.778761Z" fill="#315036"/>
<path fill-rule="evenodd" clip-rule="evenodd" d="M22.9485 -0.670576C13.4995 -1.19467 5.40764 5.9927 4.8804 15.3864C4.35315 24.7789 11.6977 31.8319 21.1467 32.356C30.5968 32.8845 38.5691 26.6776 39.1008 17.2851C39.6281 7.89697 32.3975 -0.146486 22.9485 -0.670576Z" fill="#315136"/>
<path fill-rule="evenodd" clip-rule="evenodd" d="M22.9742 -0.556916C13.7229 -1.07212 5.80085 5.96423 5.28589 15.1636C4.76759 24.3596 11.9725 31.1661 21.2227 31.6813C30.4784 32.1932 38.2742 26.2217 38.7892 17.0256C39.3075 7.82964 32.2255 -0.0450392 22.9742 -0.556916Z" fill="#325237"/>
<path fill-rule="evenodd" clip-rule="evenodd" d="M23.0031 -0.447155C13.9462 -0.951258 6.19285 5.93853 5.68571 14.9413C5.18081 23.9397 12.2461 30.4986 21.2985 31.0016C30.3566 31.5057 37.9748 25.7651 38.4808 16.7612C38.9868 7.76285 32.0556 0.0547284 23.0031 -0.447155Z" fill="#325338"/>
<path fill-rule="evenodd" clip-rule="evenodd" d="M23.0285 -0.334841C14.1693 -0.828952 6.58464 5.91427 6.09091 14.7194C5.59271 23.5257 12.5161 29.8325 21.3787 30.3222C30.2379 30.8174 37.6796 25.3078 38.1722 16.5016C38.6704 7.69529 31.8878 0.155938 23.0285 -0.334841Z" fill="#325438"/>
<path fill-rule="evenodd" clip-rule="evenodd" d="M23.0582 -0.225114C14.3934 -0.702569 6.97734 5.8852 6.49255 14.4938C6.00663 23.1069 12.7904 29.1661 21.4553 29.6447C30.1156 30.1266 37.3809 24.8513 37.8657 16.2382C38.3504 7.62958 31.7186 0.257893 23.0582 -0.225114Z" fill="#325539"/>
<path fill-rule="evenodd" clip-rule="evenodd" d="M23.0836 -0.11099C14.6175 -0.581783 7.36909 5.85498 6.8977 14.2715C6.42408 22.6869 13.0649 28.4997 21.5309 28.9694C29.998 29.4379 37.08 24.3936 37.557 15.9781C38.0295 7.56271 31.5496 0.357583 23.0836 -0.11099Z" fill="#325639"/>
<path fill-rule="evenodd" clip-rule="evenodd" d="M23.1126 0.00107948C14.8399 -0.45972 7.76119 5.83047 7.29762 14.0538C6.83852 22.2716 13.3386 27.8278 21.6069 28.2897C29.8752 28.7505 36.7852 23.9371 37.2443 15.7182C37.709 7.4949 31.3809 0.458548 23.1126 0.00107948Z" fill="#33583A"/>
<path fill-rule="evenodd" clip-rule="evenodd" d="M23.138 0.109158C15.064 -0.338317 8.15402 5.8042 7.70274 13.8266C7.25146 21.8522 13.6085 27.1609 21.6825 27.6095C29.7564 28.058 36.4854 23.4789 36.9367 15.4532C37.388 7.42754 31.2119 0.558854 23.138 0.109158Z" fill="#33593A"/>
<path fill-rule="evenodd" clip-rule="evenodd" d="M23.1643 0.223769C15.2881 -0.217044 8.54676 5.77557 8.10777 13.6036C7.66542 21.4372 13.8829 26.4949 21.7591 26.9346C29.6398 27.371 36.1867 23.0217 36.6291 15.1937C37.0681 7.3645 31.0394 0.659031 23.1643 0.223769Z" fill="#335A3B"/>
<path fill-rule="evenodd" clip-rule="evenodd" d="M23.1931 0.332885C15.5112 -0.0901628 8.93854 5.75033 8.50849 13.3818C8.07843 21.0178 14.1573 25.8279 21.8347 26.2554C29.5166 26.6829 35.8904 22.5656 36.3216 14.9297C36.7516 7.29818 30.8704 0.760373 23.1931 0.332885Z" fill="#335B3B"/>
<path fill-rule="evenodd" clip-rule="evenodd" d="M23.2184 0.446406C15.7343 0.0311314 9.33029 5.72173 8.91364 13.16C8.4914 20.5995 14.4307 25.1619 21.9104 25.5761C29.3934 25.9914 35.5907 22.1084 36.013 14.6701C36.4307 7.23071 30.7014 0.861681 23.2184 0.446406Z" fill="#335C3C"/>
<path fill-rule="evenodd" clip-rule="evenodd" d="M23.2472 0.558346C15.9586 0.151954 9.72326 5.69487 9.31331 12.9366C8.90894 20.1829 14.7008 24.4933 21.9906 24.8963C29.2759 25.3027 35.2956 21.6496 35.7 14.4045C36.1099 7.16277 30.5326 0.960297 23.2472 0.558346Z" fill="#335D3C"/>
<path fill-rule="evenodd" clip-rule="evenodd" d="M23.2735 0.668728C16.1815 0.27455 10.116 5.6709 9.71941 12.7161C9.32286 19.7647 14.9762 23.8286 22.0671 24.2228C29.1581 24.6159 34.9968 21.1949 35.3934 14.1463C35.7899 7.09661 30.3645 1.06291 23.2735 0.668728Z" fill="#345F3D"/>
<path fill-rule="evenodd" clip-rule="evenodd" d="M23.3025 0.781276C16.4093 0.394871 10.5079 5.64133 10.1203 12.4934C9.73608 19.3443 15.2498 23.1606 22.143 23.5426C29.0351 23.9234 34.7007 20.7333 35.085 13.8813C35.4693 7.02928 30.1957 1.16324 23.3025 0.781276Z" fill="#34603D"/>
<path fill-rule="evenodd" clip-rule="evenodd" d="M23.3288 0.890391C16.6344 0.521752 10.9007 5.61609 10.5254 12.2705C10.15 18.9293 15.5241 22.4947 22.2196 22.8633C28.9185 23.2364 34.402 20.2762 34.7773 13.6207C35.1493 6.96296 30.0277 1.26347 23.3288 0.890391Z" fill="#34613E"/>
<path fill-rule="evenodd" clip-rule="evenodd" d="M23.3569 1.00294C16.8569 0.642069 11.2929 5.58651 10.9299 12.0477C10.5624 18.51 15.7935 21.8222 22.2946 22.1875C28.7947 22.5484 34.1017 19.818 34.4692 13.3568C34.8311 6.89451 29.8581 1.3638 23.3569 1.00294Z" fill="#34623E"/>
<path fill-rule="evenodd" clip-rule="evenodd" d="M23.3824 1.11634C17.0801 0.764357 11.6848 5.56112 11.3307 11.8258C10.98 18.0904 16.0681 21.1561 22.3704 21.5081C28.6761 21.8601 33.8066 19.3618 34.1563 13.0971C34.5104 6.82693 29.6848 1.46388 23.3824 1.11634Z" fill="#34633F"/>
<path fill-rule="evenodd" clip-rule="evenodd" d="M23.4132 1.22503C17.3042 0.88526 12.0775 5.53101 11.7357 11.6036C11.3939 17.6761 16.3424 20.4898 22.4515 20.8284C28.555 21.1682 33.5068 18.9042 33.8486 12.8327C34.1904 6.76018 29.5167 1.5648 23.4132 1.22503Z" fill="#356440"/>
<path fill-rule="evenodd" clip-rule="evenodd" d="M23.4374 1.33916C17.5272 1.00828 12.4693 5.50746 12.1364 11.3824C11.8069 17.2573 16.6168 19.8233 22.5259 20.1509C28.4362 20.4818 33.2115 18.4476 33.541 12.5727C33.8695 6.69443 29.3477 1.66672 23.4374 1.33916Z" fill="#356540"/>
<path fill-rule="evenodd" clip-rule="evenodd" d="M23.4678 1.45275C17.7508 1.13408 12.8616 5.47781 12.5421 11.1606C12.2215 16.8424 16.8862 19.1575 22.6021 19.4761C28.318 19.7948 32.9124 17.9905 33.233 12.3099C33.5535 6.63147 29.1792 1.76698 23.4678 1.45275Z" fill="#356741"/>
<path fill-rule="evenodd" clip-rule="evenodd" d="M23.493 1.56034C17.976 1.25499 13.2554 5.45215 12.9471 10.9373C12.6354 16.4214 17.1616 18.4889 22.6787 18.7954C28.1969 19.1018 32.6181 17.5329 32.9264 12.0477C33.2336 6.56362 29.0112 1.8668 23.493 1.56034Z" fill="#356841"/>
<path fill-rule="evenodd" clip-rule="evenodd" d="M23.5185 1.67435C18.1991 1.37678 13.6428 5.42293 13.3479 10.716C13.0485 16.0036 17.4351 17.8234 22.7544 18.1166C28.0782 18.4142 32.3185 17.0773 32.6134 11.7842C32.9128 6.49665 28.8423 1.9686 23.5185 1.67435Z" fill="#356942"/>
<path fill-rule="evenodd" clip-rule="evenodd" d="M23.5472 1.78194C18.4222 1.49769 14.039 5.39727 13.7474 10.4916C13.4648 15.5871 17.7096 17.1549 22.8345 17.4402C27.9561 17.7256 32.0188 16.6186 32.3048 11.5231C32.5918 6.4288 28.6733 2.0673 23.5472 1.78194Z" fill="#366A42"/>
<path fill-rule="evenodd" clip-rule="evenodd" d="M23.5728 1.89782C18.6456 1.62467 14.4265 5.37325 14.1528 10.271C13.8781 15.1689 17.9832 16.4902 22.9104 16.7622C27.8377 17.0354 31.7227 16.1582 31.9975 11.2604C32.2757 6.36258 28.5045 2.16986 23.5728 1.89782Z" fill="#366B43"/>
<path fill-rule="evenodd" clip-rule="evenodd" d="M23.6015 2.00601C18.8687 1.74508 14.8194 5.34376 14.5569 10.0484C14.2922 14.7496 18.2532 15.8178 22.9861 16.0821C27.7145 16.3463 31.423 15.7012 31.6889 10.9999C31.9547 6.29534 28.3311 2.27028 23.6015 2.00601Z" fill="#366C43"/>
<path fill-rule="evenodd" clip-rule="evenodd" d="M23.6276 2.11833C19.0925 1.86739 15.2119 5.31839 14.9583 9.82201C14.7059 14.3345 18.5272 15.1517 23.0624 15.4038C27.5976 15.6592 31.1274 15.2439 31.381 10.7358C31.6346 6.22889 28.1628 2.37038 23.6276 2.11833Z" fill="#366D44"/>
<path fill-rule="evenodd" clip-rule="evenodd" d="M23.6567 2.23186C19.3159 1.98869 15.604 5.28868 15.3638 9.60354C15.1192 13.914 18.802 14.4836 23.1384 14.7279C27.4747 14.9666 30.8281 14.7856 31.0693 10.4752C31.314 6.16476 27.9941 2.47059 23.6567 2.23186Z" fill="#366F44"/>
<path fill-rule="evenodd" clip-rule="evenodd" d="M23.6823 2.34206C19.5403 2.11555 15.9959 5.26453 15.7647 9.38286C15.5324 13.4956 19.0756 13.8187 23.2142 14.0497C27.3562 14.2795 30.5297 14.3306 30.7609 10.2123C30.9933 6.09841 27.8254 2.57301 23.6823 2.34206Z" fill="#377045"/>
<path fill-rule="evenodd" clip-rule="evenodd" d="M23.712 2.45328C19.7688 2.23565 16.3898 5.23362 16.1697 9.15319C15.9463 13.0783 19.3466 13.1505 23.2908 13.3681C27.2396 13.5902 30.2343 13.8711 30.4533 9.95043C30.6733 6.02975 27.6573 2.67091 23.712 2.45328Z" fill="#377145"/>
<path fill-rule="evenodd" clip-rule="evenodd" d="M23.738 2.56632C19.9892 2.35868 16.7822 5.21009 16.5722 8.93535C16.3622 12.6617 19.6206 12.4852 23.3682 12.6928C27.117 12.9016 29.9353 13.4168 30.1453 9.6904C30.3542 5.96403 27.4856 2.77507 23.738 2.56632Z" fill="#377246"/>
<path fill-rule="evenodd" clip-rule="evenodd" d="M19.7717 1.83382C16.1067 2.63883 13.3141 4.50867 13.5197 5.45248C13.7308 6.39962 16.7479 4.60083 20.4129 3.79582C24.079 2.99081 27.0068 3.48603 26.7957 2.54223C26.5845 1.59509 23.4378 1.0288 19.7717 1.83382Z" fill="url(#paint0_linear_2032_27)"/>
</g>
<path fill-rule="evenodd" clip-rule="evenodd" d="M27.2889 43.3708C20.9307 44.8364 15.321 42.3914 15.3523 40.8724C15.3835 39.3524 16.9083 41.8596 26.9013 39.5567C36.8932 37.2538 39.1061 34.8321 39.1843 35.9247C39.2624 37.0162 33.646 41.9051 27.2889 43.3708Z" fill="#61735F"/>
<defs>
<linearGradient id="paint0_linear_2032_27" x1="21.1066" y1="4.6508" x2="20.3315" y2="-0.260654" gradientUnits="userSpaceOnUse">
<stop stop-color="#799978"/>
<stop offset="1" stop-color="#FEFEFE"/>
</linearGradient>
</defs>
</svg>
