<svg width="13" height="13" viewBox="0 0 13 13" fill="none" xmlns="http://www.w3.org/2000/svg">
<mask id="mask0_0_38206" style="mask-type:luminance" maskUnits="userSpaceOnUse" x="0" y="0" width="13" height="13">
<path d="M3.3519 0.71229C6.41126 -0.882374 10.1916 0.290605 11.7961 3.33167C13.3994 6.37274 12.2207 10.1305 9.16132 11.7254C6.10165 13.3204 2.32134 12.1474 0.716772 9.10636C-0.887795 6.06529 0.292237 2.30727 3.3519 0.71229Z" fill="white"/>
</mask>
<g mask="url(#mask0_0_38206)">
<path d="M9.47205 12.3157C12.8593 10.5503 14.1654 6.38971 12.3894 3.02276C10.6133 -0.344193 6.42773 -1.64251 3.04054 0.122889C-0.346662 1.88829 -1.65278 6.04888 0.12323 9.41584C1.89924 12.7828 6.08486 14.0811 9.47205 12.3157Z" fill="#281C1B"/>
<path fill-rule="evenodd" clip-rule="evenodd" d="M3.08414 0.117616C6.44493 -1.63405 10.5977 -0.345583 12.3599 2.99513C14.1221 6.33553 12.8258 10.4637 9.46504 12.2151C6.10424 13.9668 1.95152 12.6783 0.18932 9.33789C-1.57256 5.99749 -0.276664 1.86928 3.08414 0.117616Z" fill="#2C1E1B"/>
<path fill-rule="evenodd" clip-rule="evenodd" d="M3.12679 0.112757C6.46121 -1.62486 10.581 -0.347009 12.329 2.96655C14.078 6.28135 12.7916 10.3762 9.45808 12.1147C6.12334 13.8523 2.00359 12.5745 0.254579 9.26C-1.49317 5.94519 -0.207951 1.85038 3.12679 0.112757Z" fill="#2F201B"/>
<path fill-rule="evenodd" clip-rule="evenodd" d="M3.1695 0.106867C6.47661 -1.61639 10.5643 -0.349152 12.2992 2.93943C14.0331 6.22708 12.757 10.2891 9.44961 12.0136C6.14251 13.7381 2.05478 12.4697 0.32116 9.182C-1.41372 5.89342 -0.137915 1.83138 3.1695 0.106867Z" fill="#33211B"/>
<path fill-rule="evenodd" clip-rule="evenodd" d="M3.21202 0.102147C6.49337 -1.60801 10.5475 -0.350439 12.2682 2.91099C13.989 6.17273 12.7236 10.2029 9.4422 11.9134C6.16115 13.6223 2.10672 12.3647 0.385968 9.10425C-1.33447 5.84281 -0.0693401 1.81261 3.21202 0.102147Z" fill="#36231B"/>
<path fill-rule="evenodd" clip-rule="evenodd" d="M3.25491 0.0963567C6.50989 -1.60006 10.531 -0.35186 12.2377 2.88273C13.944 6.11825 12.6895 10.1154 9.43548 11.8118C6.18019 13.5079 2.15904 12.2609 0.451474 9.0251C-1.25483 5.79083 0.000876516 1.79215 3.25491 0.0963567Z" fill="#3A251B"/>
<path fill-rule="evenodd" clip-rule="evenodd" d="M3.29861 0.0918373C6.52659 -1.59022 10.5157 -0.35357 12.2079 2.8548C13.9001 6.06473 12.6563 10.0288 9.42706 11.7121C6.1994 13.3941 2.21153 12.1565 0.518098 8.94786C-1.17439 5.73918 0.0696985 1.7739 3.29861 0.0918373Z" fill="#3D271B"/>
<path fill-rule="evenodd" clip-rule="evenodd" d="M3.34137 0.0857379C6.54203 -1.58197 10.4982 -0.354988 12.1772 2.82748C13.8565 6.01025 12.6218 9.94245 9.42021 11.6105C6.21829 13.2797 2.26245 12.0524 0.583466 8.86997C-1.09458 5.6872 0.139776 1.755 3.34137 0.0857379Z" fill="#41291B"/>
<path fill-rule="evenodd" clip-rule="evenodd" d="M3.38395 0.0809026C6.55855 -1.574 10.4824 -0.356389 12.1475 2.79923C13.8111 5.95454 12.5874 9.85521 9.41285 11.5101C6.23732 13.1653 2.31445 11.9474 0.649592 8.79179C-1.01526 5.63523 0.208415 1.73581 3.38395 0.0809026Z" fill="#452A1B"/>
<path fill-rule="evenodd" clip-rule="evenodd" d="M3.4266 0.0751859C6.57514 -1.56567 10.466 -0.358361 12.1167 2.77104C13.7671 5.90075 12.5529 9.76834 9.40464 11.4089C6.25611 13.0497 2.36527 11.844 0.714854 8.71459C-0.935872 5.58363 0.278387 1.71729 3.4266 0.0751859Z" fill="#482C1B"/>
<path fill-rule="evenodd" clip-rule="evenodd" d="M3.46907 0.0703287C6.59154 -1.55617 10.4491 -0.359784 12.0854 2.74402C13.7229 5.84627 12.5196 9.68077 9.39718 11.3085C6.27471 12.9353 2.41747 11.7389 0.780875 8.63514C-0.856976 5.53289 0.34692 1.69808 3.46907 0.0703287Z" fill="#4C2E1B"/>
<path fill-rule="evenodd" clip-rule="evenodd" d="M3.51208 0.0640921C6.60848 -1.54836 10.4328 -0.362588 12.0562 2.71531C13.6783 5.79196 12.4854 9.59338 9.39026 11.2071C6.29417 12.8208 2.46989 11.6338 0.846487 8.55711C-0.776921 5.48046 0.417242 1.6778 3.51208 0.0640921Z" fill="#4F301C"/>
<path fill-rule="evenodd" clip-rule="evenodd" d="M3.5549 0.0594498C6.62398 -1.54021 10.4162 -0.363484 12.0255 2.68695C13.6345 5.73769 12.451 9.50727 9.38221 11.1069C6.31343 12.7063 2.52088 11.5299 0.911599 8.47943C-0.697365 5.42869 0.485807 1.65911 3.5549 0.0594498Z" fill="#53321C"/>
<path fill-rule="evenodd" clip-rule="evenodd" d="M3.59755 0.0540478C6.64057 -1.53125 10.3995 -0.364205 11.9956 2.65938C13.5908 5.68391 12.418 9.4204 9.37493 11.006C6.33222 12.5926 2.57295 11.4255 0.978113 8.40193C-0.61672 5.3774 0.555776 1.64091 3.59755 0.0540478Z" fill="#56341C"/>
<path fill-rule="evenodd" clip-rule="evenodd" d="M3.64128 0.0490012C6.65668 -1.52225 10.3839 -0.367066 11.9646 2.63062C13.5466 5.62924 12.3832 9.33295 9.3678 10.9055C6.35083 12.4767 2.62485 11.3215 1.04289 8.32259C-0.5375 5.32522 0.625576 1.6215 3.64128 0.0490012Z" fill="#5A351C"/>
<path fill-rule="evenodd" clip-rule="evenodd" d="M3.68418 0.0427806C6.67225 -1.51412 10.3662 -0.368293 11.934 2.60317C13.5016 5.57463 12.3492 9.24527 9.35951 10.8037C6.36987 12.3622 2.67622 11.2164 1.10839 8.24458C-0.457867 5.27312 0.694533 1.60124 3.68418 0.0427806Z" fill="#5E371C"/>
<path fill-rule="evenodd" clip-rule="evenodd" d="M3.72679 0.0385906C6.68911 -1.50551 10.3507 -0.370298 11.9041 2.57526C13.4578 5.52113 12.3145 9.15992 9.3525 10.704C6.38892 12.2481 2.72825 11.1132 1.17486 8.16735C-0.378834 5.2218 0.763204 1.58269 3.72679 0.0385906Z" fill="#61391C"/>
<path fill-rule="evenodd" clip-rule="evenodd" d="M3.76955 0.0337619C6.7055 -1.49629 10.3345 -0.371693 11.8734 2.54671C13.4139 5.46542 12.2813 9.07238 9.34534 10.6024C6.40813 12.1337 2.78043 11.0079 1.23992 8.08949C-0.299335 5.17077 0.833282 1.56382 3.76955 0.0337619Z" fill="#653B1C"/>
<path fill-rule="evenodd" clip-rule="evenodd" d="M3.81212 0.0278715C6.72201 -1.48782 10.3177 -0.372901 11.8438 2.51866C13.3689 5.41146 12.2469 8.98534 9.33673 10.5023C6.4281 12.0192 2.83243 10.9031 1.30636 8.0115C-0.219704 5.119 0.903179 1.54513 3.81212 0.0278715Z" fill="#683D1C"/>
<path fill-rule="evenodd" clip-rule="evenodd" d="M3.85477 0.0234343C6.7386 -1.47946 10.3007 -0.374842 11.8129 2.49175C13.3249 5.3574 12.2127 8.89818 9.32977 10.4011C6.44563 11.904 2.88356 10.7997 1.37162 7.93277C-0.140315 5.06743 0.971892 1.52633 3.85477 0.0234343Z" fill="#6C3E1C"/>
<path fill-rule="evenodd" clip-rule="evenodd" d="M3.89722 0.0171167C6.7553 -1.47142 10.2844 -0.376478 11.7822 2.46327C13.281 5.3027 12.1794 8.81196 9.32261 10.3005C6.46579 11.7894 2.93574 10.6944 1.43793 7.85466C-0.0595577 5.01492 1.04072 1.50597 3.89722 0.0171167Z" fill="#6F401C"/>
<path d="M9.31438 10.2002C12.1445 8.72509 13.2358 5.24875 11.7519 2.43553C10.268 -0.377699 6.77072 -1.46249 3.94058 0.0125712C1.11044 1.48764 0.0191276 4.96398 1.50306 7.7772C2.98699 10.5904 6.48424 11.6752 9.31438 10.2002Z" fill="#73421C"/>
<path fill-rule="evenodd" clip-rule="evenodd" d="M3.98856 0.0385206C6.7719 -1.41132 10.2109 -0.344461 11.6707 2.42193C13.1293 5.18864 12.0453 8.58803 9.26228 10.0382C6.47893 11.489 3.05188 10.4411 1.59207 7.67474C0.133513 4.90804 1.20553 1.48961 3.98856 0.0385206Z" fill="#76451F"/>
<path fill-rule="evenodd" clip-rule="evenodd" d="M4.03717 0.0655117C6.77278 -1.35967 10.1537 -0.31154 11.5887 2.40772C13.0237 5.12824 11.9457 8.44991 9.20883 9.87634C6.47291 11.3028 3.11587 10.2912 1.68087 7.57189C0.24618 4.85263 1.30155 1.49194 4.03717 0.0655117Z" fill="#794922"/>
<path fill-rule="evenodd" clip-rule="evenodd" d="M4.08598 0.093034C6.77418 -1.30842 10.097 -0.278087 11.5069 2.39529C12.9171 5.06743 11.8451 8.31231 9.15654 9.71408C6.46709 11.1155 3.18008 10.142 1.77019 7.46957C0.359995 4.79619 1.39653 1.49324 4.08598 0.093034Z" fill="#7D4C26"/>
<path fill-rule="evenodd" clip-rule="evenodd" d="M4.13453 0.120065C6.77531 -1.25798 10.04 -0.245437 11.4251 2.38081C12.8102 5.00706 11.7454 8.17579 9.10303 9.55228C6.46225 10.9291 3.24401 9.99332 1.85893 7.36707C0.473852 4.74082 1.49249 1.49686 4.13453 0.120065Z" fill="#805029"/>
<path fill-rule="evenodd" clip-rule="evenodd" d="M4.18185 0.145894C6.77647 -1.20625 9.9831 -0.212429 11.3431 2.36669C12.7033 4.94581 11.6454 8.03744 9.05081 9.38958C6.45619 10.7417 3.30797 9.84342 1.9477 7.2643C0.58774 4.68518 1.58722 1.49772 4.18185 0.145894Z" fill="#83532C"/>
<path fill-rule="evenodd" clip-rule="evenodd" d="M4.23077 0.173125C6.77924 -1.15529 9.92651 -0.17802 11.2617 2.35365C12.5981 4.88564 11.5462 7.90111 8.99894 9.22828C6.45048 10.5555 3.37228 9.69398 2.03682 7.16199C0.701666 4.63001 1.68356 1.5003 4.23077 0.173125Z" fill="#86572F"/>
<path fill-rule="evenodd" clip-rule="evenodd" d="M4.27921 0.19877C6.77932 -1.10374 9.86945 -0.145508 11.1798 2.33935C12.4914 4.82514 11.4454 7.76164 8.94564 9.0654C6.44491 10.3692 3.43611 9.5439 2.12608 7.05904C0.814476 4.57325 1.77847 1.50222 4.27921 0.19877Z" fill="#895A33"/>
<path fill-rule="evenodd" clip-rule="evenodd" d="M4.3282 0.22595C6.78027 -1.05315 9.81261 -0.112397 11.0991 2.32626C12.3846 4.76524 11.3459 7.62496 8.89352 8.90406C6.43988 10.1816 3.50142 9.39535 2.21494 6.95669C0.928149 4.51772 1.87456 1.50474 4.3282 0.22595Z" fill="#8D5E36"/>
<path fill-rule="evenodd" clip-rule="evenodd" d="M4.37521 0.252735C6.78144 -1.0014 9.75569 -0.0793698 11.0174 2.31216C12.2778 4.704 11.246 7.48694 8.84005 8.74107C6.43415 9.9952 3.56539 9.24547 2.30372 6.85394C1.04205 4.46241 1.9693 1.50718 4.37521 0.252735Z" fill="#906139"/>
<path fill-rule="evenodd" clip-rule="evenodd" d="M4.42376 0.279003C6.78382 -0.950159 9.69842 -0.046235 10.9353 2.29972C12.1722 4.64412 11.1463 7.35059 8.7878 8.58006C6.42805 9.80954 3.62932 9.09632 2.39246 6.75192C1.1559 4.40597 2.06526 1.50848 4.42376 0.279003Z" fill="#93653C"/>
<path fill-rule="evenodd" clip-rule="evenodd" d="M4.47243 0.30627C6.78508 -0.898546 9.64159 -0.0133495 10.8533 2.28516C12.0654 4.58368 11.0468 7.21243 8.73443 8.41693C6.42335 9.62299 3.69339 8.9463 2.48133 6.64903C1.26958 4.35021 2.1601 1.51077 4.47243 0.30627Z" fill="#96683F"/>
<path fill-rule="evenodd" clip-rule="evenodd" d="M4.52118 0.33206C6.78516 -0.847786 9.58358 0.0208677 10.7718 2.271C11.9587 4.52239 10.946 7.07435 8.68238 8.25544C6.41746 9.43529 3.75752 8.79761 2.57058 6.54623C1.38239 4.29484 2.25626 1.51315 4.52118 0.33206Z" fill="#996C43"/>
<path fill-rule="evenodd" clip-rule="evenodd" d="M4.5684 0.359094C6.78716 -0.79703 9.52623 0.0538321 10.6899 2.25808C11.8517 4.46265 10.8463 6.93783 8.6288 8.09301C6.41129 9.24945 3.82138 8.64829 2.65924 6.44404C1.49585 4.23979 2.35089 1.51553 4.5684 0.359094Z" fill="#9D6F46"/>
<path fill-rule="evenodd" clip-rule="evenodd" d="M4.61718 0.386291C6.78853 -0.745487 9.46951 0.0866478 10.6081 2.24377C11.7464 4.40089 10.7469 6.7996 8.57648 7.93137C6.40544 9.06284 3.88555 8.4982 2.74822 6.34108C1.60995 4.18302 2.44709 1.51651 4.61718 0.386291Z" fill="#A07349"/>
<path fill-rule="evenodd" clip-rule="evenodd" d="M4.66611 0.413194C6.79004 -0.693614 9.41293 0.119793 10.5264 2.23103C11.6402 4.34071 10.6473 6.66294 8.52366 7.77006C6.40099 8.87562 3.95112 8.34875 2.83734 6.23845C1.72388 4.12752 2.54218 1.51907 4.66611 0.413194Z" fill="#A3764C"/>
<path fill-rule="evenodd" clip-rule="evenodd" d="M4.71454 0.439354C6.79075 -0.642484 9.35586 0.153132 10.4445 2.21693C11.5329 4.28103 10.5475 6.52524 8.47099 7.60738C6.39479 8.68953 4.01494 8.19918 2.92628 6.13507C1.83763 4.07128 2.63803 1.5215 4.71454 0.439354Z" fill="#A67A50"/>
<path fill-rule="evenodd" clip-rule="evenodd" d="M4.76217 0.466255C6.79096 -0.592173 9.29924 0.185964 10.3628 2.20263C11.4263 4.22054 10.4482 6.38733 8.41814 7.44451C6.38904 8.50294 4.0789 8.05035 3.01536 6.03244C1.95057 4.01547 2.73307 1.52375 4.76217 0.466255Z" fill="#A97D53"/>
<path fill-rule="evenodd" clip-rule="evenodd" d="M4.81037 0.492415C6.793 -0.540106 9.24161 0.21899 10.2803 2.19008C11.3203 4.15961 10.3482 6.25087 8.36522 7.28308C6.38385 8.31592 4.14248 7.9011 3.10375 5.93001C2.06376 3.96048 2.82868 1.52618 4.81037 0.492415Z" fill="#AD8156"/>
<path fill-rule="evenodd" clip-rule="evenodd" d="M4.85909 0.519542C6.79462 -0.48957 9.18514 0.252984 10.1991 2.1757C11.2142 4.09934 10.2477 6.11288 8.31346 7.12168C6.37825 8.12955 4.2069 7.75125 3.19298 5.8276C2.17811 3.90489 2.92388 1.52865 4.85909 0.519542Z" fill="#B08459"/>
<path fill-rule="evenodd" clip-rule="evenodd" d="M4.90767 0.54695C6.79578 -0.437191 9.12821 0.286635 10.1183 2.16284C11.1074 4.03967 10.1481 5.97518 8.25999 6.95932C6.37219 7.94346 4.27086 7.60293 3.28206 5.72641C2.29169 3.84989 3.01987 1.53015 4.90767 0.54695Z" fill="#B3885C"/>
<path fill-rule="evenodd" clip-rule="evenodd" d="M4.95499 0.572506C6.79663 -0.386977 9.07128 0.319057 10.0365 2.14844C11.0005 3.97814 10.0482 5.83687 8.20777 6.79635C6.36613 7.75583 4.33483 7.45275 3.37083 5.62243C2.40558 3.79305 3.1146 1.53199 4.95499 0.572506Z" fill="#B68B60"/>
<path fill-rule="evenodd" clip-rule="evenodd" d="M5.00377 0.599858C6.798 -0.334966 9.01425 0.352341 9.95469 2.13584C10.8951 3.9181 9.94873 5.70035 8.1545 6.63518C6.36153 7.56969 4.399 7.30344 3.45855 5.51994C2.51842 3.73769 3.20955 1.53468 5.00377 0.599858Z" fill="#B98F63"/>
<path fill-rule="evenodd" clip-rule="evenodd" d="M5.05235 0.626539C6.79916 -0.284564 8.95732 0.384952 9.87265 2.12101C10.7883 3.85738 9.84784 5.56192 8.10228 6.47302C6.35547 7.38287 4.46422 7.15315 3.54764 5.41709C2.632 3.68165 3.30554 1.53639 5.05235 0.626539Z" fill="#BC9266"/>
<path fill-rule="evenodd" clip-rule="evenodd" d="M5.10096 0.652882C6.80035 -0.232314 8.90042 0.418161 9.79094 2.10865C10.6815 3.79789 9.74824 5.42564 8.04884 6.31084C6.34944 7.19728 4.52821 7.00501 3.63769 5.31483C2.74592 3.62559 3.40156 1.53933 5.10096 0.652882Z" fill="#C09669"/>
<path fill-rule="evenodd" clip-rule="evenodd" d="M5.14835 0.679696C6.80128 -0.182091 8.84231 0.452155 9.70896 2.09426C10.5759 3.73606 9.64867 5.28734 7.99669 6.14881C6.34377 7.00966 4.59225 6.85516 3.72528 5.21305C2.85957 3.57001 3.49637 1.54117 5.14835 0.679696Z" fill="#C3996C"/>
<path fill-rule="evenodd" clip-rule="evenodd" d="M5.19738 0.705933C6.80289 -0.131195 8.78583 0.485571 9.62737 2.08024C10.4695 3.67615 9.54949 5.14971 7.94367 5.98684C6.3391 6.82365 4.65635 6.70567 3.8145 5.10976C2.97391 3.51478 3.59156 1.54275 5.19738 0.705933Z" fill="#C69D70"/>
<path fill-rule="evenodd" clip-rule="evenodd" d="M5.24568 0.73282C6.80409 -0.0793382 8.72863 0.518076 9.54567 2.06686C10.3627 3.61595 9.44959 5.01273 7.89149 5.82489C6.3334 6.63611 4.72067 6.55589 3.90331 5.0068C3.08658 3.45801 3.68759 1.54498 5.24568 0.73282Z" fill="#C9A073"/>
<path fill-rule="evenodd" clip-rule="evenodd" d="M5.29426 0.760208C6.80525 -0.0272924 8.6717 0.551394 9.46393 2.05304C10.2559 3.55501 9.34995 4.875 7.83801 5.6625C6.32733 6.45 4.78463 6.4063 3.99239 4.90465C3.20016 3.40269 3.78232 1.5474 5.29426 0.760208Z" fill="#CCA476"/>
<path fill-rule="evenodd" clip-rule="evenodd" d="M5.34172 0.785704C6.80624 0.0228616 8.61491 0.584069 9.38202 2.03859C10.1504 3.49435 9.25046 4.73787 7.78594 5.50072C6.32267 6.26325 4.84967 6.25732 4.0813 4.80155C3.31387 3.34703 3.87845 1.54948 5.34172 0.785704Z" fill="#D0A779"/>
<path fill-rule="evenodd" clip-rule="evenodd" d="M5.39026 0.812678C6.80736 0.0735574 8.55763 0.617285 9.29994 2.02561C10.0435 3.43331 9.14953 4.60005 7.73242 5.33792C6.31657 6.0761 4.9136 6.10763 4.17003 4.69899C3.42773 3.29067 3.97315 1.55086 5.39026 0.812678Z" fill="#D3AB7D"/>
<path fill-rule="evenodd" clip-rule="evenodd" d="M5.43905 0.840232C6.80874 0.126082 8.50091 0.650458 9.21841 2.01196C9.93686 3.37347 9.04979 4.4628 7.68042 5.17695C6.31072 5.89016 4.97777 5.95852 4.25901 4.59701C3.54183 3.23551 4.06936 1.55345 5.43905 0.840232Z" fill="#D6AE80"/>
<path fill-rule="evenodd" clip-rule="evenodd" d="M5.48762 0.866209C6.8099 0.176405 8.44398 0.68455 9.13762 1.99892C9.83031 3.3133 8.95016 4.32553 7.62788 5.01408C6.30466 5.70358 5.04173 5.80845 4.34809 4.49408C3.6554 3.18002 4.16409 1.5557 5.48762 0.866209Z" fill="#D9B283"/>
<path fill-rule="evenodd" clip-rule="evenodd" d="M5.53501 0.893236C6.81113 0.228402 8.3868 0.717508 9.05563 1.98506C9.72321 3.25324 8.85059 4.18807 7.57479 4.8529C6.29992 5.51773 5.10576 5.66006 4.43693 4.39189C3.7681 3.12464 4.26015 1.55807 5.53501 0.893236Z" fill="#DCB586"/>
<path fill-rule="evenodd" clip-rule="evenodd" d="M5.58369 0.920216C6.81208 0.280352 8.32998 0.750418 8.974 1.97178C9.61771 3.19158 8.7498 4.04993 7.52236 4.68979C6.29397 5.33122 5.16983 5.51038 4.5258 4.28902C3.88178 3.06922 4.35498 1.56039 5.58369 0.920216Z" fill="#E0B989"/>
<path fill-rule="evenodd" clip-rule="evenodd" d="M5.63217 0.945873C6.81346 0.330668 8.27201 0.783254 8.89217 1.95717C9.51108 3.1314 8.65039 3.91172 7.46941 4.52817C6.28813 5.14338 5.23401 5.36031 4.61479 4.18639C3.99589 3.01216 4.4512 1.56108 5.63217 0.945873Z" fill="#E3BC8D"/>
<path fill-rule="evenodd" clip-rule="evenodd" d="M5.68085 0.973659C6.81472 0.381864 8.21644 0.816971 8.81054 1.94375C9.40464 3.07179 8.55086 3.77564 7.41698 4.36618C6.28217 4.95798 5.29902 5.21143 4.70398 4.08433C4.10988 2.95755 4.54603 1.56421 5.68085 0.973659Z" fill="#E6C090"/>
<path fill-rule="evenodd" clip-rule="evenodd" d="M5.72831 0.99921C6.81602 0.433321 8.1584 0.8497 8.72863 1.9306C9.29918 3.01025 8.45105 3.63732 7.36365 4.20415C6.2775 4.77003 5.36343 5.0625 4.79289 3.9816C4.22359 2.9007 4.64216 1.56635 5.72831 0.99921Z" fill="#E9C393"/>
<path fill-rule="evenodd" clip-rule="evenodd" d="M5.77692 1.02644C6.8169 0.485523 8.10118 0.883799 8.64661 1.91632C9.19235 2.95009 8.35144 3.50068 7.31146 4.04285C6.27147 4.58377 5.42711 4.91275 4.88169 3.87898C4.33626 2.84521 4.73693 1.56861 5.77692 1.02644Z" fill="#ECC796"/>
<path fill-rule="evenodd" clip-rule="evenodd" d="M5.82549 1.05343C6.81806 0.535921 8.04425 0.915469 8.56487 1.90211C9.08549 2.88875 8.25055 3.36256 7.25798 3.88007C6.26541 4.39757 5.49108 4.76308 4.97077 3.77613C4.44983 2.7898 4.83292 1.56969 5.82549 1.05343Z" fill="#F0CA9A"/>
<path fill-rule="evenodd" clip-rule="evenodd" d="M5.87414 1.08068C6.81929 0.586576 7.98739 0.949894 8.48289 1.88909C8.97871 2.8286 8.15099 3.22469 7.20583 3.71754C6.26068 4.21008 5.55511 4.61335 5.05929 3.67384C4.56379 2.73433 4.92773 1.57197 5.87414 1.08068Z" fill="#F3CE9D"/>
<path fill-rule="evenodd" clip-rule="evenodd" d="M5.9221 1.10649C6.82047 0.638294 7.93048 0.982572 8.40149 1.87557C8.8725 2.76857 8.05137 3.08757 7.153 3.55576C6.25463 4.02395 5.6194 4.46405 5.14839 3.57105C4.67739 2.67805 5.02373 1.57468 5.9221 1.10649Z" fill="#F6D1A0"/>
<path fill-rule="evenodd" clip-rule="evenodd" d="M5.41909 11.974C6.81893 12.2131 8.09473 11.8423 8.10446 11.6057C8.1142 11.3694 7.74713 11.7568 5.5472 11.3813C3.3476 11.0055 2.8813 10.625 2.8521 10.7948C2.82258 10.9646 4.01957 11.735 5.41909 11.974Z" fill="#B59070"/>
</g>
</svg>
