<svg width="24" height="23" viewBox="0 0 24 23" fill="none" xmlns="http://www.w3.org/2000/svg">
<mask id="mask0_0_38062" style="mask-type:luminance" maskUnits="userSpaceOnUse" x="0" y="0" width="24" height="24">
<path d="M11.5797 6.10352e-05C17.9692 6.10352e-05 23.151 5.15035 23.151 11.5022C23.151 17.854 17.9692 23.002 11.5797 23.002C5.18968 23.002 0.0107422 17.854 0.0107422 11.5022C0.0107422 5.15035 5.18968 6.10352e-05 11.5797 6.10352e-05Z" fill="white"/>
</mask>
<g mask="url(#mask0_0_38062)">
<path d="M11.5803 24.2346C18.6552 24.2346 24.3906 18.5335 24.3906 11.5009C24.3906 4.46828 18.6552 -1.23279 11.5803 -1.23279C4.50537 -1.23279 -1.22998 4.46828 -1.22998 11.5009C-1.22998 18.5335 4.50537 24.2346 11.5803 24.2346Z" fill="#D7B56D"/>
<path fill-rule="evenodd" clip-rule="evenodd" d="M11.6562 -1.20288C18.6735 -1.20288 24.366 4.45321 24.366 11.4309C24.366 18.4087 18.6735 24.0647 11.6562 24.0647C4.63419 24.0647 -1.05591 18.4087 -1.05591 11.4309C-1.05591 4.45321 4.63419 -1.20288 11.6562 -1.20288Z" fill="#D2B069"/>
<path fill-rule="evenodd" clip-rule="evenodd" d="M11.7304 -1.17474C18.6932 -1.17474 24.3397 4.43573 24.3397 11.3586C24.3397 18.2821 18.6932 23.8925 11.7304 23.8925C4.76591 23.8925 -0.880615 18.2821 -0.880615 11.3586C-0.880615 4.43573 4.76591 -1.17474 11.7304 -1.17474Z" fill="#CDAA65"/>
<path fill-rule="evenodd" clip-rule="evenodd" d="M11.8054 -1.14838C18.7129 -1.14838 24.313 4.41879 24.313 11.2874C24.313 18.1537 18.7129 23.7203 11.8054 23.7203C4.89547 23.7203 -0.70459 18.1537 -0.70459 11.2874C-0.70459 4.41879 4.89547 -1.14838 11.8054 -1.14838Z" fill="#C9A561"/>
<path fill-rule="evenodd" clip-rule="evenodd" d="M11.8798 -1.12024C18.7328 -1.12024 24.287 4.40247 24.287 11.2145C24.287 18.0265 18.7328 23.5498 11.8798 23.5498C5.02512 23.5498 -0.529053 18.0265 -0.529053 11.2145C-0.529053 4.40247 5.02512 -1.12024 11.8798 -1.12024Z" fill="#C49F5E"/>
<path fill-rule="evenodd" clip-rule="evenodd" d="M11.9541 -1.09174C18.7524 -1.09174 24.2625 4.38536 24.2625 11.1431C24.2625 17.9003 18.7524 23.3774 11.9541 23.3774C5.15627 23.3774 -0.35376 17.9003 -0.35376 11.1431C-0.35376 4.38536 5.15627 -1.09174 11.9541 -1.09174Z" fill="#BF9A5A"/>
<path fill-rule="evenodd" clip-rule="evenodd" d="M12.0289 -1.06372C18.7721 -1.06372 24.2362 4.37007 24.2362 11.0706C24.2362 17.7735 18.7721 23.2073 12.0289 23.2073C5.28567 23.2073 -0.178467 17.7735 -0.178467 11.0706C-0.178467 4.37007 5.28567 -1.06372 12.0289 -1.06372Z" fill="#BA9456"/>
<path fill-rule="evenodd" clip-rule="evenodd" d="M12.1037 -1.03528C18.79 -1.03528 24.2105 4.3529 24.2105 10.9986C24.2105 17.6472 18.79 23.0348 12.1037 23.0348C5.41569 23.0348 -0.00488281 17.6472 -0.00488281 10.9986C-0.00488281 4.3529 5.41569 -1.03528 12.1037 -1.03528Z" fill="#B68F52"/>
<path fill-rule="evenodd" clip-rule="evenodd" d="M12.178 -1.00708C18.8091 -1.00708 24.1855 4.33491 24.1855 10.9287C24.1855 17.5207 18.8091 22.8627 12.178 22.8627C5.54635 22.8627 0.169922 17.5207 0.169922 10.9287C0.169922 4.33491 5.54635 -1.00708 12.178 -1.00708Z" fill="#B1894E"/>
<path fill-rule="evenodd" clip-rule="evenodd" d="M12.2525 -0.978638C18.829 -0.978638 24.1595 4.32004 24.1595 10.8572C24.1595 17.3944 18.829 22.6925 12.2525 22.6925C5.676 22.6925 0.345459 17.3944 0.345459 10.8572C0.345459 4.32004 5.676 -0.978638 12.2525 -0.978638Z" fill="#AC844A"/>
<path fill-rule="evenodd" clip-rule="evenodd" d="M12.327 -0.952271C18.8488 -0.952271 24.1352 4.30311 24.1352 10.7854C24.1352 17.266 18.8488 22.5208 12.327 22.5208C5.80565 22.5208 0.520996 17.266 0.520996 10.7854C0.520996 4.30311 5.80565 -0.952271 12.327 -0.952271Z" fill="#A77E46"/>
<path fill-rule="evenodd" clip-rule="evenodd" d="M12.402 -0.922913C18.8687 -0.922913 24.1092 4.2857 24.1092 10.7137C24.1092 17.1401 18.8687 22.3493 12.402 22.3493C5.93762 22.3493 0.696533 17.1401 0.696533 10.7137C0.696533 4.2857 5.93762 -0.922913 12.402 -0.922913Z" fill="#A37943"/>
<path fill-rule="evenodd" clip-rule="evenodd" d="M12.4763 -0.895142C18.886 -0.895142 24.083 4.27016 24.083 10.6416C24.083 17.0131 18.886 22.179 12.4763 22.179C6.06648 22.179 0.870117 17.0131 0.870117 10.6416C0.870117 4.27016 6.06648 -0.895142 12.4763 -0.895142Z" fill="#9E733F"/>
<path fill-rule="evenodd" clip-rule="evenodd" d="M12.5511 -0.866699C18.9057 -0.866699 24.0585 4.25299 24.0585 10.5696C24.0585 16.8868 18.9057 22.0065 12.5511 22.0065C6.19821 22.0065 1.04541 16.8868 1.04541 10.5696C1.04541 4.25299 6.19821 -0.866699 12.5511 -0.866699Z" fill="#996E3B"/>
<path fill-rule="evenodd" clip-rule="evenodd" d="M12.6279 -0.841248C18.9255 -0.841248 24.0324 4.23514 24.0324 10.4975C24.0324 16.7598 18.9255 21.8362 12.6279 21.8362C6.32786 21.8362 1.22095 16.7598 1.22095 10.4975C1.22095 4.23514 6.32786 -0.841248 12.6279 -0.841248Z" fill="#946837"/>
<path fill-rule="evenodd" clip-rule="evenodd" d="M12.7029 -0.813049C18.9454 -0.813049 24.0064 4.21946 24.0064 10.4252C24.0064 16.631 18.9454 21.6635 12.7029 21.6635C6.45751 21.6635 1.39648 16.631 1.39648 10.4252C1.39648 4.21946 6.45751 -0.813049 12.7029 -0.813049Z" fill="#906333"/>
<path fill-rule="evenodd" clip-rule="evenodd" d="M12.7774 -0.784607C18.9653 -0.784607 23.9821 4.20229 23.9821 10.3532C23.9821 16.5047 18.9653 21.4916 12.7774 21.4916C6.5889 21.4916 1.57202 16.5047 1.57202 10.3532C1.57202 4.20229 6.5889 -0.784607 12.7774 -0.784607Z" fill="#8B5D2F"/>
<path fill-rule="evenodd" clip-rule="evenodd" d="M12.8516 -0.756592C18.9849 -0.756592 23.9559 4.187 23.9559 10.2813C23.9559 16.378 18.9849 21.321 12.8516 21.321C6.71834 21.321 1.74561 16.378 1.74561 10.2813C1.74561 4.187 6.71834 -0.756592 12.8516 -0.756592Z" fill="#86582B"/>
<path fill-rule="evenodd" clip-rule="evenodd" d="M12.9264 -0.728088C19.0022 -0.728088 23.9291 4.16931 23.9291 10.2094C23.9291 16.2517 19.0022 21.1491 12.9264 21.1491C6.84774 21.1491 1.9209 16.2517 1.9209 10.2094C1.9209 4.16931 6.84774 -0.728088 12.9264 -0.728088Z" fill="#815228"/>
<path fill-rule="evenodd" clip-rule="evenodd" d="M13.0009 -0.700073C19.0221 -0.700073 23.9054 4.15171 23.9054 10.1392C23.9054 16.125 19.0221 20.9768 13.0009 20.9768C6.97914 20.9768 2.09644 16.125 2.09644 10.1392C2.09644 4.15171 6.97914 -0.700073 13.0009 -0.700073Z" fill="#7D4D24"/>
<path fill-rule="evenodd" clip-rule="evenodd" d="M13.0751 -0.671631C19.0423 -0.671631 23.8791 4.13685 23.8791 10.0672C23.8791 15.9987 19.0423 20.8066 13.0751 20.8066C7.10854 20.8066 2.27173 15.9987 2.27173 10.0672C2.27173 4.13685 7.10854 -0.671631 13.0751 -0.671631Z" fill="#784720"/>
<path d="M13.15 20.6347C19.0614 20.6347 23.8535 15.8713 23.8535 9.99523C23.8535 4.11919 19.0614 -0.644287 13.15 -0.644287C7.23865 -0.644287 2.44653 4.11919 2.44653 9.99523C2.44653 15.8713 7.23865 20.6347 13.15 20.6347Z" fill="#73421C"/>
<path fill-rule="evenodd" clip-rule="evenodd" d="M13.2071 -0.560425C19.0197 -0.560425 23.7322 4.12334 23.7322 9.90125C23.7322 15.6797 19.0156 20.3242 13.2024 20.3242C7.38917 20.3242 2.68188 15.6797 2.68188 9.90125C2.68188 4.12334 7.39381 -0.560425 13.2071 -0.560425Z" fill="#764621"/>
<path fill-rule="evenodd" clip-rule="evenodd" d="M13.2616 -0.475891C18.9761 -0.475891 23.6091 4.12993 23.6091 9.80968C23.6091 15.49 18.9721 20.0121 13.2576 20.0121C7.54308 20.0121 2.91479 15.49 2.91479 9.80968C2.91479 4.12993 7.54715 -0.475891 13.2616 -0.475891Z" fill="#7A4B25"/>
<path fill-rule="evenodd" clip-rule="evenodd" d="M13.3183 -0.389893C18.934 -0.389893 23.4862 4.13682 23.4862 9.71843C23.4862 15.3006 18.9276 19.7032 13.3096 19.7032C7.69439 19.7032 3.14917 15.3006 3.14917 9.71843C3.14917 4.13682 7.7031 -0.389893 13.3183 -0.389893Z" fill="#7D4F2A"/>
<path fill-rule="evenodd" clip-rule="evenodd" d="M13.3736 -0.304932C18.893 -0.304932 23.3656 4.14095 23.3656 9.62728C23.3656 15.1113 18.8819 19.3915 13.3649 19.3915C7.84561 19.3915 3.38403 15.1113 3.38403 9.62728C3.38403 4.14095 7.85665 -0.304932 13.3736 -0.304932Z" fill="#81542F"/>
<path fill-rule="evenodd" clip-rule="evenodd" d="M13.4305 -0.220093C18.8488 -0.220093 23.2424 4.14784 23.2424 9.53313C23.2424 14.9213 18.8377 19.082 13.4177 19.082C7.99949 19.082 3.61865 14.9213 3.61865 9.53313C3.61865 4.14784 8.00995 -0.220093 13.4305 -0.220093Z" fill="#845833"/>
<path fill-rule="evenodd" clip-rule="evenodd" d="M13.4874 -0.13562C18.8069 -0.13562 23.1221 4.15379 23.1221 9.4415C23.1221 14.7315 18.7918 18.7715 13.4723 18.7715C8.15047 18.7715 3.85327 14.7315 3.85327 9.4415C3.85327 4.15379 8.16615 -0.13562 13.4874 -0.13562Z" fill="#875D38"/>
<path fill-rule="evenodd" clip-rule="evenodd" d="M13.5427 -0.0496216C18.7657 -0.0496216 22.999 4.15895 22.999 9.35024C22.999 14.5421 18.7477 18.4603 13.5247 18.4603C8.30447 18.4603 4.08569 14.5421 4.08569 9.35024C4.08569 4.15895 8.31957 -0.0496216 13.5427 -0.0496216Z" fill="#8B613C"/>
<path fill-rule="evenodd" clip-rule="evenodd" d="M13.5993 0.0350342C18.7236 0.0350342 22.8762 4.16509 22.8762 9.2588C22.8762 14.3525 18.7039 18.1506 13.5795 18.1506C8.4552 18.1506 4.32007 14.3525 4.32007 9.2588C4.32007 4.16509 8.47495 0.0350342 13.5993 0.0350342Z" fill="#8E6641"/>
<path fill-rule="evenodd" clip-rule="evenodd" d="M13.6541 0.119873C18.6797 0.119873 22.7532 4.16909 22.7532 9.16464C22.7532 14.1602 18.6576 17.8387 13.6326 17.8387C8.60642 17.8387 4.55493 14.1602 4.55493 9.16464C4.55493 4.16909 8.6285 0.119873 13.6541 0.119873Z" fill="#926A46"/>
<path fill-rule="evenodd" clip-rule="evenodd" d="M13.7114 0.204834C18.6382 0.204834 22.6334 4.17553 22.6334 9.07293C22.6334 13.9703 18.6144 17.5288 13.6875 17.5288C8.7607 17.5288 4.79053 13.9703 4.79053 9.07293C4.79053 4.17553 8.78451 0.204834 13.7114 0.204834Z" fill="#956E4A"/>
<path fill-rule="evenodd" clip-rule="evenodd" d="M13.7662 0.28949C18.5967 0.28949 22.5099 4.18166 22.5099 8.9809C22.5099 13.7801 18.5705 17.2185 13.7395 17.2185C8.91201 17.2185 5.0249 13.7801 5.0249 8.9809C5.0249 4.18166 8.93815 0.28949 13.7662 0.28949Z" fill="#99734F"/>
<path fill-rule="evenodd" clip-rule="evenodd" d="M13.8235 0.374451C18.5529 0.374451 22.3877 4.18636 22.3877 8.88976C22.3877 13.5908 18.5244 16.9068 13.795 16.9068C9.06336 16.9068 5.25757 13.5908 5.25757 8.88976C5.25757 4.18636 9.09182 0.374451 13.8235 0.374451Z" fill="#9C7754"/>
<path fill-rule="evenodd" clip-rule="evenodd" d="M13.8801 0.460144C18.5113 0.460144 22.2666 4.19295 22.2666 8.79588C22.2666 13.4011 18.48 16.5975 13.8476 16.5975C9.21699 16.5975 5.49194 13.4011 5.49194 8.79588C5.49194 4.19295 9.2472 0.460144 13.8801 0.460144Z" fill="#9F7C58"/>
<path fill-rule="evenodd" clip-rule="evenodd" d="M13.935 0.5448C18.4692 0.5448 22.1431 4.19677 22.1431 8.70444C22.1431 13.2109 18.4338 16.2878 13.9019 16.2878C9.36772 16.2878 5.72632 13.2109 5.72632 8.70444C5.72632 4.19677 9.40316 0.5448 13.935 0.5448Z" fill="#A3805D"/>
<path fill-rule="evenodd" clip-rule="evenodd" d="M13.9924 0.629639C18.4278 0.629639 22.0228 4.20367 22.0228 8.6126C22.0228 13.0215 18.3906 15.976 13.9552 15.976C9.51977 15.976 5.96143 13.0215 5.96143 8.6126C5.96143 4.20367 9.55694 0.629639 13.9924 0.629639Z" fill="#A68562"/>
<path fill-rule="evenodd" clip-rule="evenodd" d="M14.0467 0.7146C18.3857 0.7146 21.8999 4.20779 21.8999 8.51914C21.8999 12.8293 18.3462 15.6666 14.0095 15.6666C9.67282 15.6666 6.1958 12.8293 6.1958 8.51914C6.1958 4.20779 9.71 0.7146 14.0467 0.7146Z" fill="#AA8966"/>
<path fill-rule="evenodd" clip-rule="evenodd" d="M14.1046 0.800598C18.3426 0.800598 21.7778 4.21527 21.7778 8.42788C21.7778 12.6405 18.3008 15.3554 14.0628 15.3554C9.82429 15.3554 6.43091 12.6405 6.43091 8.42788C6.43091 4.21527 9.86611 0.800598 14.1046 0.800598Z" fill="#AD8D6B"/>
<path fill-rule="evenodd" clip-rule="evenodd" d="M14.1612 0.884827C18.3004 0.884827 21.6566 4.22097 21.6566 8.33543C21.6566 12.4499 18.2562 15.0453 14.1153 15.0453C9.97548 15.0453 6.66284 12.4499 6.66284 8.33543C6.66284 4.22097 10.0196 0.884827 14.1612 0.884827Z" fill="#B0926F"/>
<path fill-rule="evenodd" clip-rule="evenodd" d="M14.2161 0.970215C18.2589 0.970215 21.5343 4.22552 21.5343 8.24472C21.5343 12.261 18.2107 14.7334 14.1702 14.7334C10.1298 14.7334 6.89844 12.261 6.89844 8.24472C6.89844 4.22552 10.1756 0.970215 14.2161 0.970215Z" fill="#B49674"/>
<path fill-rule="evenodd" clip-rule="evenodd" d="M14.2727 1.05475C18.215 1.05475 21.4109 4.23211 21.4109 8.15257C21.4109 12.0707 18.1668 14.4236 14.2222 14.4236C10.2805 14.4236 7.13281 12.0707 7.13281 8.15257C7.13281 4.23211 10.3287 1.05475 14.2727 1.05475Z" fill="#B79B79"/>
<path fill-rule="evenodd" clip-rule="evenodd" d="M14.3281 1.14062C18.1734 1.14062 21.2903 4.23658 21.2903 8.05946C21.2903 11.8818 18.1229 14.1145 14.2776 14.1145C10.4323 14.1145 7.36768 11.8818 7.36768 8.05946C7.36768 4.23658 10.4846 1.14062 14.3281 1.14062Z" fill="#BB9F7D"/>
<path fill-rule="evenodd" clip-rule="evenodd" d="M14.385 1.22559C18.1315 1.22559 21.1677 4.24359 21.1677 7.96774C21.1677 11.6919 18.0769 13.8028 14.3304 13.8028C10.5833 13.8028 7.60229 11.6919 7.60229 7.96774C7.60229 4.24359 10.6384 1.22559 14.385 1.22559Z" fill="#BEA482"/>
<path fill-rule="evenodd" clip-rule="evenodd" d="M14.4397 1.31036C18.088 1.31036 21.0446 4.24984 21.0446 7.87583C21.0446 11.5024 18.0329 13.4932 14.3851 13.4932C10.7367 13.4932 7.83472 11.5024 7.83472 7.87583C7.83472 4.24984 10.7919 1.31036 14.4397 1.31036Z" fill="#C2A887"/>
<path fill-rule="evenodd" clip-rule="evenodd" d="M14.4971 1.39502C18.0462 1.39502 20.9243 4.25309 20.9243 7.78381C20.9243 11.3116 17.9869 13.1824 14.4373 13.1824C10.8882 13.1824 8.06934 11.3116 8.06934 7.78381C8.06934 4.25309 10.9475 1.39502 14.4971 1.39502Z" fill="#C5AD8B"/>
<path fill-rule="evenodd" clip-rule="evenodd" d="M14.5518 1.4809C18.0045 1.4809 20.8013 4.26102 20.8013 7.6907C20.8013 11.1227 17.9429 12.8716 14.4926 12.8716C11.04 12.8716 8.30469 11.1227 8.30469 7.6907C8.30469 4.26102 11.1009 1.4809 14.5518 1.4809Z" fill="#C8B190"/>
<path fill-rule="evenodd" clip-rule="evenodd" d="M14.6085 1.56573C17.9623 1.56573 20.6784 4.26502 20.6784 7.59943C20.6784 10.931 17.899 12.5621 14.5451 12.5621C11.193 12.5621 8.53906 10.931 8.53906 7.59943C8.53906 4.26502 11.2563 1.56573 14.6085 1.56573Z" fill="#CCB594"/>
<path fill-rule="evenodd" clip-rule="evenodd" d="M14.6654 1.65039C17.9188 1.65039 20.5577 4.27173 20.5577 7.50741C20.5577 10.7414 17.8532 12.2501 14.5998 12.2501C11.3447 12.2501 8.77319 10.7414 8.77319 7.50741C8.77319 4.27173 11.4103 1.65039 14.6654 1.65039Z" fill="#CFBA99"/>
<path fill-rule="evenodd" clip-rule="evenodd" d="M14.7206 1.73535C17.877 1.73535 20.4345 4.27759 20.4345 7.41338C20.4345 10.5509 17.809 11.9401 14.6526 11.9401C11.4957 11.9401 9.0061 10.5509 9.0061 7.41338C9.0061 4.27759 11.5659 1.73535 14.7206 1.73535Z" fill="#D3BE9E"/>
<path fill-rule="evenodd" clip-rule="evenodd" d="M14.7775 1.82013C17.8351 1.82013 20.3119 4.28153 20.3119 7.32148C20.3119 10.3608 17.7631 11.6299 14.7072 11.6299C11.6495 11.6299 9.24072 10.3608 9.24072 7.32148C9.24072 4.28153 11.7192 1.82013 14.7775 1.82013Z" fill="#D6C3A2"/>
<path fill-rule="evenodd" clip-rule="evenodd" d="M14.8323 1.90417C17.7917 1.90417 20.1913 4.28936 20.1913 7.23057C20.1913 10.1724 17.7191 11.3196 14.7602 11.3196C11.8008 11.3196 9.47559 10.1724 9.47559 7.23057C9.47559 4.28936 11.8734 1.90417 14.8323 1.90417Z" fill="#D9C7A7"/>
<path fill-rule="evenodd" clip-rule="evenodd" d="M14.8895 1.98883C17.7496 1.98883 20.0684 4.29607 20.0684 7.13913C20.0684 9.98218 17.673 11.0094 14.8128 11.0094C11.9521 11.0094 9.70996 9.98218 9.70996 7.13913C9.70996 4.29607 12.0288 1.98883 14.8895 1.98883Z" fill="#DDCCAC"/>
<path fill-rule="evenodd" clip-rule="evenodd" d="M14.9468 2.07532C17.7082 2.07532 19.948 4.29941 19.948 7.04431C19.948 9.7921 17.6298 10.6969 14.8678 10.6969C12.1059 10.6969 9.94507 9.7921 9.94507 7.04431C9.94507 4.29941 12.1825 2.07532 14.9468 2.07532Z" fill="#E0D0B0"/>
<path fill-rule="evenodd" clip-rule="evenodd" d="M15.001 2.15863C17.6666 2.15863 19.8251 4.30651 19.8251 6.95383C19.8251 9.60115 17.5853 10.3881 14.9197 10.3881C12.2571 10.3881 10.177 9.60115 10.177 6.95383C10.177 4.30651 12.3384 2.15863 15.001 2.15863Z" fill="#E4D4B5"/>
<path fill-rule="evenodd" clip-rule="evenodd" d="M15.0583 2.24512C17.6228 2.24512 19.7023 4.31274 19.7023 6.86133C19.7023 9.4128 17.5397 10.0774 14.9752 10.0774C12.4084 10.0774 10.4126 9.4128 10.4126 6.86133C10.4126 4.31274 12.4921 2.24512 15.0583 2.24512Z" fill="#E7D9BA"/>
<path fill-rule="evenodd" clip-rule="evenodd" d="M15.1132 2.32898C17.5807 2.32898 19.5794 4.3175 19.5794 6.76851C19.5794 9.22183 17.4953 9.76688 15.0278 9.76688C12.5621 9.76688 10.647 9.22183 10.647 6.76851C10.647 4.3175 12.6475 2.32898 15.1132 2.32898Z" fill="#EBDDBE"/>
<path fill-rule="evenodd" clip-rule="evenodd" d="M15.1706 2.41394C17.5399 2.41394 19.459 4.32451 19.459 6.67679C19.459 9.03195 17.4522 9.45691 15.0829 9.45691C12.7135 9.45691 10.8821 9.03195 10.8821 6.67679C10.8821 4.32451 12.8012 2.41394 15.1706 2.41394Z" fill="#EEE2C3"/>
<path fill-rule="evenodd" clip-rule="evenodd" d="M15.2272 2.4986C17.4978 2.4986 19.3356 4.32834 19.3356 6.58534C19.3356 8.84177 17.4054 9.1449 15.1348 9.1449C12.8672 9.1449 11.1165 8.84177 11.1165 6.58534C11.1165 4.32834 12.9566 2.4986 15.2272 2.4986Z" fill="#F1E6C7"/>
<path fill-rule="evenodd" clip-rule="evenodd" d="M15.282 2.58643C17.4538 2.58643 19.2132 4.33475 19.2132 6.49361C19.2132 8.65246 17.362 8.83549 15.1902 8.83549C13.0184 8.83549 11.3513 8.65246 11.3513 6.49361C11.3513 4.33475 13.1107 2.58643 15.282 2.58643Z" fill="#F5EBCC"/>
<path fill-rule="evenodd" clip-rule="evenodd" d="M15.3393 2.6684C17.4118 2.6684 19.0923 4.33878 19.0923 6.39947C19.0923 8.45959 17.3154 8.5231 15.2429 8.5231C13.1698 8.5231 11.5835 8.45959 11.5835 6.39947C11.5835 4.33878 13.2662 2.6684 15.3393 2.6684Z" fill="#F8EFD1"/>
<path fill-rule="evenodd" clip-rule="evenodd" d="M15.3938 2.75305C17.3681 2.75305 18.9696 4.34491 18.9696 6.30745C18.9696 8.2723 17.2717 8.2134 15.2974 8.2134C13.3207 8.2134 11.8186 8.2723 11.8186 6.30745C11.8186 4.34491 13.4195 2.75305 15.3938 2.75305Z" fill="#FCF4D5"/>
<path fill-rule="evenodd" clip-rule="evenodd" d="M15.4504 2.83905C17.3272 2.83905 18.8479 4.35123 18.8479 6.21677C18.8479 8.08173 17.2267 7.90331 15.3505 7.90331C13.4738 7.90331 12.053 8.08173 12.053 6.21677C12.053 4.35123 13.5742 2.83905 15.4504 2.83905Z" fill="#FFF8DA"/>
</g>
</svg>
