<svg width="42" height="43" viewBox="0 0 42 43" fill="none" xmlns="http://www.w3.org/2000/svg">
<path d="M28.9972 15.5745C29.591 15.1588 30.4092 15.303 30.825 15.8966C31.2406 16.4904 31.0965 17.3086 30.5028 17.7244L21.7528 23.8494C21.3009 24.1657 20.6991 24.1657 20.2472 23.8494L11.4972 17.7244L11.3912 17.6423C10.8875 17.2077 10.7853 16.4534 11.175 15.8966C11.5648 15.34 12.3085 15.1781 12.8892 15.5027L13.0028 15.5745L21 21.1722L28.9972 15.5745Z" fill="#51A178"/>
<path d="M37.1875 13.1494C37.1875 12.5693 36.9569 12.013 36.5466 11.6028C36.1364 11.1925 35.5802 10.9619 35 10.9619H7C6.41984 10.9619 5.8636 11.1925 5.45337 11.6028C5.04313 12.013 4.8125 12.5693 4.8125 13.1494V30.6494C4.8125 31.2296 5.04313 31.7858 5.45337 32.196C5.86361 32.6063 6.41984 32.8369 7 32.8369H35C35.5802 32.8369 36.1364 32.6063 36.5466 32.196C36.9569 31.7858 37.1875 31.2296 37.1875 30.6494V13.1494ZM39.8125 30.6494C39.8125 31.9258 39.3051 33.1495 38.4026 34.052C37.5001 34.9545 36.2764 35.4619 35 35.4619H7C5.72365 35.4619 4.49993 34.9545 3.59741 34.052C2.69489 33.1495 2.1875 31.9258 2.1875 30.6494V13.1494C2.1875 11.8731 2.69489 10.6493 3.59741 9.74683C4.49993 8.84431 5.72365 8.33691 7 8.33691H35C36.2764 8.33691 37.5001 8.84431 38.4026 9.74683C39.3051 10.6493 39.8125 11.8731 39.8125 13.1494V30.6494Z" fill="#51A178"/>
</svg>
