<svg width="42" height="43" viewBox="0 0 42 43" fill="none" xmlns="http://www.w3.org/2000/svg">
<path d="M32.7423 24.3238C33.98 24.3723 35.1771 24.7824 36.1987 25.503C37.2874 26.271 38.1255 27.3552 38.6178 28.61C39.1098 29.8643 39.238 31.2408 38.9878 32.568C38.7375 33.8953 38.1173 35.1229 37.1976 36.0936L37.1985 36.0945C36.5145 36.8165 35.2246 38.0198 33.3687 39.6782C32.8726 40.1213 32.1239 40.123 31.6255 39.6825C29.8608 38.1227 28.572 36.9208 27.7897 36.0936C26.8706 35.1231 26.2514 33.8948 26.0012 32.568C25.751 31.2407 25.8792 29.8643 26.3712 28.61C26.8635 27.3552 27.7016 26.271 28.7903 25.503C29.88 24.7344 31.1692 24.3187 32.4945 24.3187L32.7423 24.3238ZM32.2048 26.9557C31.532 27.0083 30.8768 27.2436 30.3036 27.6478C29.6474 28.1107 29.1257 28.7768 28.8151 29.5687C28.5043 30.361 28.4216 31.2365 28.5809 32.0818C28.7204 32.8212 29.0376 33.501 29.4927 34.0582L29.696 34.2889L29.6969 34.2898L29.9823 34.5846C30.5599 35.1696 31.3935 35.9502 32.4902 36.9353C33.8651 35.6923 34.7926 34.8162 35.2921 34.2889L35.4963 34.0582C35.9514 33.501 36.2686 32.8212 36.4081 32.0818C36.5675 31.2365 36.4847 30.361 36.174 29.5687C35.8633 28.7768 35.3416 28.1107 34.6854 27.6478C34.0302 27.1857 33.2678 26.9437 32.4945 26.9437L32.2048 26.9557ZM5.51221 11.4902V32.7884L13.4974 28.5749V7.27588L5.51221 11.4902ZM31.182 31.2512V31.2324C31.1822 30.5077 31.7698 29.9199 32.4945 29.9199C33.2192 29.92 33.8068 30.5077 33.807 31.2324V31.2512C33.807 31.9761 33.2194 32.5637 32.4945 32.5637C31.7696 32.5637 31.182 31.9761 31.182 31.2512ZM34.7188 19.0995V7.27588L26.7335 11.4902V20.9665C26.7333 21.6912 26.1456 22.2789 25.421 22.279C24.6963 22.279 24.1087 21.6912 24.1085 20.9665V11.4902L16.1224 7.27588V28.5749L20.7281 31.0051L20.8435 31.0743C21.3974 31.4427 21.5931 32.1781 21.2759 32.779C20.9586 33.3797 20.2415 33.6325 19.625 33.3832L19.5028 33.3268L14.8099 30.8496L4.81238 36.1269C4.40558 36.3416 3.91603 36.3277 3.52209 36.0902C3.12826 35.8527 2.88735 35.4264 2.88721 34.9665V10.6998L2.90002 10.5195C2.95739 10.1047 3.21027 9.73742 3.58704 9.53857L14.1973 3.93908L14.3442 3.87243C14.6941 3.73952 15.0871 3.76201 15.4226 3.93908L25.4202 9.21472L35.4186 3.93908C35.8254 3.72437 36.3149 3.73829 36.7089 3.97583C37.1028 4.21336 37.3438 4.63948 37.3438 5.09948V19.0995C37.3438 19.8244 36.7561 20.412 36.0312 20.412C35.3064 20.412 34.7188 19.8243 34.7188 19.0995Z" fill="#51A178"/>
</svg>
