<svg width="42" height="43" viewBox="0 0 42 43" fill="none" xmlns="http://www.w3.org/2000/svg">
<path d="M9.83361 5.20178C11.0004 5.37692 12.0632 5.97995 12.809 6.89795C13.9489 8.16351 15.1441 9.27582 16.42 10.5509C17.1387 11.1911 17.5881 12.0816 17.6719 13.0443L17.6796 13.1263L17.6761 13.2092C17.6443 14.0307 17.336 14.8146 16.8029 15.4377C16.3368 16.0272 15.7489 16.5928 15.3263 17.0339L15.3075 17.0536L15.2887 17.0715C15.1438 17.2111 15.0331 17.3822 14.9648 17.5714C14.91 17.7234 14.8845 17.884 14.8879 18.0448C15.0989 18.6412 15.4195 19.1924 15.8347 19.6666L16.0321 19.8794L16.0996 19.9478L16.156 20.0247C16.9621 21.1244 17.8066 22.1954 18.6879 23.2358L18.9895 23.5768C20.4146 25.1534 22.061 26.5148 23.8772 27.6185L24.2694 27.851L24.3386 27.8911L24.4019 27.9398C24.5252 28.033 24.6714 28.0914 24.8248 28.1099C24.9608 28.1262 25.0981 28.1085 25.2264 28.062C25.7959 27.7319 26.3047 27.3054 26.7252 26.8008L26.8577 26.6478C27.5337 25.902 28.4581 25.4232 29.4622 25.3037L29.5741 25.29L29.6869 25.296C30.6477 25.3474 31.5558 25.7515 32.2375 26.4342C32.8574 26.9701 33.477 27.672 33.9072 28.1022C34.3748 28.5697 34.8716 29.0281 35.3376 29.5309C35.7629 29.909 36.1706 30.304 36.5587 30.7178L36.9543 31.1536L36.9825 31.1852L37.0082 31.2194C37.5825 31.9628 37.8607 32.8976 37.7798 33.8367L37.7695 33.952L37.7396 34.0631C37.481 35.0302 36.9318 35.8933 36.1682 36.5386C35.2209 37.5092 34.0767 38.2661 32.8118 38.7568C31.5287 39.2546 30.1528 39.4662 28.7794 39.3789C26.2136 39.2365 23.6995 38.5895 21.3846 37.4734L20.5754 37.0974C20.2981 36.9644 20.0145 36.8221 19.7295 36.6667L19.7209 36.6616L19.7124 36.6573C17.0536 35.1552 14.6107 33.2996 12.4492 31.1425C9.63341 28.4907 7.31997 25.3524 5.62011 21.878L5.61926 21.8755C4.68766 19.9635 4.05762 17.9187 3.75305 15.8137L3.7539 15.8129C3.33577 13.5833 3.58697 11.2797 4.47937 9.19311L4.51696 9.10425L4.56738 9.02222C5.11209 8.13485 5.76884 7.32153 6.52075 6.60144C6.90629 6.1831 7.36909 5.84265 7.88452 5.60083C8.42002 5.34964 9.00069 5.2094 9.59179 5.18811L9.71398 5.18298L9.83361 5.20178ZM9.5653 7.82166C9.36945 7.84224 9.17757 7.89329 8.99878 7.97717C8.78343 8.07824 8.59081 8.22196 8.43225 8.39929L8.39636 8.43945L8.35791 8.47534C7.78267 9.02271 7.27877 9.6403 6.85656 10.3125C6.23453 11.811 6.03662 13.4502 6.28405 15.0507L6.3413 15.3771L6.34729 15.407L6.35156 15.4377C6.61717 17.2734 7.1654 19.057 7.97766 20.7245L8.27673 21.3184C9.70386 24.076 11.5576 26.5911 13.7694 28.7704L14.2488 29.2318L14.2633 29.2455L14.277 29.2592C16.2748 31.2576 18.5352 32.9757 20.995 34.3665C21.2303 34.4945 21.4669 34.6138 21.7102 34.7305L22.475 35.0851L22.4878 35.0911L22.5015 35.0979C24.3855 36.0098 26.4232 36.5633 28.5077 36.7308L28.9255 36.759L28.9375 36.7599L29.3109 36.7736C30.182 36.7825 31.0482 36.6255 31.8624 36.3096C32.793 35.9485 33.6332 35.3884 34.3251 34.6689L34.3806 34.6117L34.443 34.5613C34.7826 34.2847 35.0325 33.9158 35.1676 33.5009C35.1643 33.2689 35.0886 33.0402 34.9488 32.8489C34.5125 32.3568 34.0468 31.8916 33.5518 31.4543L33.4996 31.4091L33.4535 31.3578C33.0169 30.8812 32.6587 30.5664 32.0513 29.959C31.3998 29.3075 31.033 28.8542 30.4918 28.3936L30.4423 28.3517L30.397 28.3047C30.2 28.1002 29.941 27.9686 29.6595 27.9287C29.3051 27.9976 28.9837 28.1872 28.7529 28.4679L28.7487 28.473C28.1027 29.2502 27.3178 29.9019 26.4381 30.3948L26.3791 30.4272L26.3176 30.4546C25.7496 30.7 25.1264 30.7898 24.5121 30.7161C23.9327 30.6465 23.3816 30.4317 22.9065 30.0948C20.5708 28.7342 18.4753 26.9977 16.7046 24.9551L16.6995 24.9499L16.6952 24.944C15.7863 23.8715 14.9145 22.7682 14.0821 21.6354C13.2893 20.805 12.6931 19.8055 12.3415 18.7122L12.3014 18.5874L12.286 18.4567C12.2186 17.8567 12.2906 17.249 12.4954 16.681C12.6942 16.1296 13.0138 15.6301 13.4302 15.2181L14.1522 14.4756C14.3685 14.2502 14.5629 14.0371 14.7444 13.8074L14.7692 13.7766L14.7948 13.7476C14.9332 13.5923 15.0207 13.3994 15.046 13.193C15.0036 12.9225 14.8674 12.6752 14.6581 12.4957L14.6196 12.4633L14.5837 12.4274C13.3827 11.2263 12.0577 9.98726 10.8479 8.64282L10.8188 8.61035L10.7924 8.57703C10.4872 8.18961 10.0518 7.92365 9.5653 7.82166ZM22.7151 10.3424C25.2276 10.4674 27.6117 11.5211 29.3989 13.3083C31.1859 15.0954 32.2388 17.4791 32.364 19.9913L32.3768 20.4955L32.37 20.6296C32.303 21.2916 31.744 21.8087 31.0643 21.8088C30.385 21.8088 29.826 21.2921 29.7587 20.6305L29.7518 20.4963L29.7424 20.1221C29.6496 18.2585 28.8686 16.49 27.543 15.1643C26.2173 13.8387 24.4488 13.0577 22.5852 12.9648L22.2109 12.9554L22.0768 12.9486C21.4149 12.8813 20.8983 12.3217 20.8984 11.6421C20.8987 10.9174 21.487 10.3303 22.2118 10.3304L22.7151 10.3424ZM35.8213 19.8768C35.8213 18.1889 35.4889 16.5169 34.8429 14.9575C34.197 13.3983 33.2498 11.9818 32.0564 10.7885C30.8629 9.59507 29.4458 8.64773 27.8865 8.00195C26.4244 7.3965 24.8635 7.06735 23.2833 7.02869L22.9672 7.02441L22.833 7.01758C22.1712 6.95038 21.6547 6.39143 21.6547 5.71191C21.6547 4.98711 22.2423 4.3995 22.9672 4.39941L23.3483 4.40369C25.251 4.45033 27.13 4.84788 28.8905 5.5769C30.7685 6.35458 32.475 7.49446 33.9123 8.93164C35.3497 10.3688 36.49 12.0756 37.2679 13.9535C38.0457 15.8313 38.4463 17.8443 38.4463 19.8768C38.4461 20.6014 37.8584 21.1891 37.1338 21.1893C36.409 21.1893 35.8215 20.6015 35.8213 19.8768Z" fill="#51A178"/>
</svg>
