<svg width="30" height="31" viewBox="0 0 30 31" fill="none" xmlns="http://www.w3.org/2000/svg">
<path d="M15.1908 4.88501L14.8832 5.16013L3.6741 16.4921L3 17.1681L3.67508 17.8756L13.0103 27.21L13.7178 27.885L14.3958 27.21L25.7258 16.0018L26 15.6933V4.88501H15.1908ZM16.0202 6.85015H24.0347V14.864L13.7168 25.1201L5.76322 17.1671L16.0202 6.85015ZM21.0867 8.81529C20.8261 8.81529 20.5762 8.91881 20.3919 9.10308C20.2076 9.28735 20.1041 9.53727 20.1041 9.79786C20.1041 10.0585 20.2076 10.3084 20.3919 10.4926C20.5762 10.6769 20.8261 10.7804 21.0867 10.7804C21.3473 10.7804 21.5973 10.6769 21.7816 10.4926C21.9659 10.3084 22.0694 10.0585 22.0694 9.79786C22.0694 9.53727 21.9659 9.28735 21.7816 9.10308C21.5973 8.91881 21.3473 8.81529 21.0867 8.81529Z" fill="white"/>
</svg>
