<svg width="30" height="31" viewBox="0 0 30 31" fill="none" xmlns="http://www.w3.org/2000/svg">
<path d="M3.0625 26.8228V21.6392C3.0625 21.0425 3.29972 20.4694 3.72168 20.0474C4.14361 19.6257 4.71591 19.3892 5.3125 19.3892H10.4961L10.5986 19.3941C11.1028 19.4454 11.4961 19.8715 11.4961 20.3892C11.4959 20.9068 11.1027 21.3321 10.5986 21.3834L10.4961 21.3892H6.72754C7.69532 22.844 9.03077 24.0222 10.6045 24.7984C12.3672 25.6678 14.3482 25.9953 16.2969 25.7388C18.2456 25.4823 20.075 24.653 21.5527 23.357C23.0303 22.0611 24.09 20.356 24.5986 18.4576L24.6309 18.3599C24.8109 17.8863 25.3242 17.6166 25.8242 17.7505C26.3574 17.8936 26.6741 18.4419 26.5312 18.9752L26.4082 19.4C25.7583 21.5099 24.5353 23.4014 22.8711 24.8609C21.0959 26.4177 18.8986 27.4131 16.5576 27.7213C14.2168 28.0293 11.8372 27.6367 9.71973 26.5923C7.82922 25.6599 6.22507 24.2443 5.0625 22.4966V26.8228C5.06239 27.375 4.61472 27.8228 4.0625 27.8228C3.51028 27.8228 3.06261 27.375 3.0625 26.8228ZM13.4424 4.04938C15.7832 3.74131 18.1628 4.13391 20.2803 5.17828C22.1706 6.11063 23.775 7.52554 24.9375 9.27301V4.94781C24.9375 4.39553 25.3852 3.94781 25.9375 3.94781C26.4898 3.94781 26.9375 4.39553 26.9375 4.94781V10.1314L26.9287 10.3296C26.888 10.7914 26.7052 11.2315 26.4033 11.5875C26.1015 11.9432 25.6976 12.1945 25.249 12.3101L25.0547 12.3521H25.0518C24.9308 12.3718 24.8091 12.3814 24.6875 12.3814H19.5039C18.9516 12.3814 18.5039 11.9337 18.5039 11.3814C18.5039 10.8291 18.9516 10.3814 19.5039 10.3814H23.2734C22.3056 8.92629 20.9695 7.74853 19.3955 6.97223C17.6327 6.10281 15.6518 5.77531 13.7031 6.0318C11.7544 6.28831 9.92504 7.11668 8.44727 8.41266C6.96952 9.70863 5.91002 11.4145 5.40137 13.313L5.36914 13.4097C5.18924 13.8837 4.67597 14.1541 4.17578 14.0201C3.64266 13.8771 3.32615 13.3287 3.46875 12.7955L3.5918 12.3707C4.24165 10.2607 5.46471 8.36927 7.12891 6.90973C8.90409 5.35292 11.1014 4.35751 13.4424 4.04938Z" fill="#51A178"/>
</svg>
