<svg width="40" height="41" viewBox="0 0 40 41" fill="none" xmlns="http://www.w3.org/2000/svg">
<circle cx="20" cy="20.2305" r="20" fill="#2F89CE"/>
<path d="M8.36824 20.8703L13.1962 22.6393L15.0783 28.5894C15.1602 28.9914 15.6511 29.0718 15.9785 28.8306L18.6789 26.6596C18.9243 26.4184 19.3335 26.4184 19.6608 26.6596L24.4888 30.1171C24.8161 30.3584 25.3071 30.1975 25.3889 29.7955L28.9895 12.91C29.0713 12.508 28.6622 12.106 28.253 12.2668L8.36824 19.825C7.87725 19.9859 7.87725 20.7095 8.36824 20.8703ZM14.8328 21.7548L24.3251 16.0459C24.4888 15.9655 24.6525 16.2067 24.4888 16.2871L16.7149 23.4434C16.4694 23.6846 16.2239 24.0062 16.2239 24.4082L15.9785 26.338C15.9785 26.5792 15.5693 26.6596 15.4875 26.338L14.5055 22.8001C14.26 22.3981 14.4237 21.9156 14.8328 21.7548Z" fill="white"/>
</svg>
