<svg width="30" height="31" viewBox="0 0 30 31" fill="none" xmlns="http://www.w3.org/2000/svg">
<path d="M15 2.88501C22.1805 2.88501 28 8.70454 28 15.885C28 23.0655 22.1805 28.885 15 28.885C7.81953 28.885 2 23.0655 2 15.885C2 8.70454 7.81953 2.88501 15 2.88501ZM15 26.7167C20.982 26.7167 25.8316 21.867 25.8316 15.885C25.8316 9.90298 20.982 5.05337 15 5.05337C9.01797 5.05337 4.16836 9.90298 4.16836 15.885C4.16836 21.867 9.01797 26.7167 15 26.7167ZM16.0816 14.8034H21.5V16.9717H13.9184V7.22173H16.0867V14.8034H16.0816Z" fill="#51A178"/>
</svg>
