<svg width="40" height="41" viewBox="0 0 40 41" fill="none" xmlns="http://www.w3.org/2000/svg">
<circle cx="20" cy="20.2305" r="20" fill="#48C95F"/>
<path d="M27.9268 13.293C25.9512 11.3242 23.3171 10.2305 20.5366 10.2305C14.7561 10.2305 10.0732 14.8971 10.0732 20.6576C10.0732 22.4805 10.5854 24.3034 11.4634 25.8346L10 31.2305L15.561 29.7721C17.0976 30.5742 18.7805 31.0117 20.5366 31.0117C26.3171 31.0117 31 26.3451 31 20.5846C30.9268 17.8867 29.9024 15.2617 27.9268 13.293ZM25.5854 24.3763C25.3659 24.9596 24.3415 25.543 23.8293 25.6159C23.3902 25.6888 22.8049 25.6888 22.2195 25.543C21.8537 25.3971 21.3415 25.2513 20.7561 24.9596C18.122 23.8659 16.439 21.2409 16.2927 21.0221C16.1463 20.8763 15.1951 19.6367 15.1951 18.3242C15.1951 17.0117 15.8537 16.4284 16.0732 16.1367C16.2927 15.8451 16.5854 15.8451 16.8049 15.8451C16.9512 15.8451 17.1707 15.8451 17.3171 15.8451C17.4634 15.8451 17.6829 15.7721 17.9024 16.2826C18.122 16.793 18.6341 18.1055 18.7073 18.1784C18.7805 18.3242 18.7805 18.4701 18.7073 18.6159C18.6341 18.7617 18.561 18.9076 18.4146 19.0534C18.2683 19.1992 18.1219 19.418 18.0488 19.4909C17.9024 19.6367 17.7561 19.7826 17.9024 20.0013C18.0488 20.293 18.561 21.0951 19.3659 21.8242C20.3902 22.6992 21.1951 22.9909 21.4878 23.1367C21.7805 23.2826 21.9268 23.2096 22.0732 23.0638C22.2195 22.918 22.7317 22.3346 22.878 22.043C23.0244 21.7513 23.2439 21.8242 23.4634 21.8971C23.6829 21.9701 25 22.6263 25.2195 22.7721C25.5122 22.918 25.6585 22.9909 25.7317 23.0638C25.8049 23.2826 25.8049 23.793 25.5854 24.3763Z" fill="white"/>
</svg>
