<svg width="24" height="25" viewBox="0 0 24 25" fill="none" xmlns="http://www.w3.org/2000/svg">
<path d="M20.4878 3.73047C18.23 1.48047 15.2195 0.230469 12.0418 0.230469C5.43554 0.230469 0.0836224 5.5638 0.0836224 12.1471C0.0836224 14.2305 0.668989 16.3138 1.67247 18.0638L0 24.2305L6.3554 22.5638C8.1115 23.4805 10.0348 23.9805 12.0418 23.9805C18.6481 23.9805 24 18.6471 24 12.0638C23.9164 8.98047 22.7456 5.98047 20.4878 3.73047ZM17.8118 16.3971C17.561 17.0638 16.3902 17.7305 15.8049 17.8138C15.3031 17.8971 14.6341 17.8971 13.9652 17.7305C13.547 17.5638 12.9617 17.3971 12.2927 17.0638C9.28223 15.8138 7.35889 12.8138 7.19164 12.5638C7.02439 12.3971 5.93728 10.9805 5.93728 9.48047C5.93728 7.98047 6.68989 7.3138 6.94077 6.98047C7.19164 6.64713 7.52613 6.64713 7.777 6.64713C7.94425 6.64713 8.19512 6.64713 8.36237 6.64713C8.52961 6.64713 8.78049 6.5638 9.03136 7.14714C9.28223 7.73047 9.86759 9.23047 9.95122 9.3138C10.0348 9.48047 10.0348 9.64714 9.95122 9.8138C9.86759 9.98047 9.78397 10.1471 9.61672 10.3138C9.44947 10.4805 9.28223 10.7305 9.1986 10.8138C9.03135 10.9805 8.86411 11.1471 9.03136 11.3971C9.19861 11.7305 9.78397 12.6471 10.7038 13.4805C11.8746 14.4805 12.7944 14.8138 13.1289 14.9805C13.4634 15.1471 13.6307 15.0638 13.7979 14.8971C13.9652 14.7305 14.5505 14.0638 14.7178 13.7305C14.885 13.3971 15.1359 13.4805 15.3868 13.5638C15.6376 13.6471 17.1429 14.3971 17.3937 14.5638C17.7282 14.7305 17.8955 14.8138 17.9791 14.8971C18.0627 15.1471 18.0627 15.7305 17.8118 16.3971Z" fill="white"/>
</svg>
